<mxfile host="app.diagrams.net" agent="Mozilla/5.0 (Windows NT 10.0; Win64; x64) AppleWebKit/537.36 (KHTML, like Gecko) Chrome/129.0.0.0 Safari/537.36" version="24.7.16" pages="15">
  <diagram id="C5RBs43oDa-KdzZeNtuy" name="Page-1">
    <mxGraphModel dx="1062" dy="661" grid="1" gridSize="10" guides="1" tooltips="1" connect="1" arrows="1" fold="1" page="1" pageScale="1" pageWidth="827" pageHeight="1169" math="0" shadow="0">
      <root>
        <mxCell id="WIyWlLk6GJQsqaUBKTNV-0" />
        <mxCell id="WIyWlLk6GJQsqaUBKTNV-1" parent="WIyWlLk6GJQsqaUBKTNV-0" />
        <mxCell id="MbaDd006pOFyOzCAzOfE-4" style="edgeStyle=orthogonalEdgeStyle;rounded=0;orthogonalLoop=1;jettySize=auto;html=1;" edge="1" parent="WIyWlLk6GJQsqaUBKTNV-1" source="MbaDd006pOFyOzCAzOfE-2" target="MbaDd006pOFyOzCAzOfE-3">
          <mxGeometry relative="1" as="geometry" />
        </mxCell>
        <mxCell id="MbaDd006pOFyOzCAzOfE-2" value="Job Profile Selection Screen" style="rounded=0;whiteSpace=wrap;html=1;" vertex="1" parent="WIyWlLk6GJQsqaUBKTNV-1">
          <mxGeometry x="180" y="60" width="120" height="60" as="geometry" />
        </mxCell>
        <mxCell id="MbaDd006pOFyOzCAzOfE-6" style="edgeStyle=orthogonalEdgeStyle;rounded=0;orthogonalLoop=1;jettySize=auto;html=1;" edge="1" parent="WIyWlLk6GJQsqaUBKTNV-1" source="MbaDd006pOFyOzCAzOfE-3" target="MbaDd006pOFyOzCAzOfE-5">
          <mxGeometry relative="1" as="geometry" />
        </mxCell>
        <mxCell id="MbaDd006pOFyOzCAzOfE-3" value="Select Job Profile" style="rhombus;whiteSpace=wrap;html=1;" vertex="1" parent="WIyWlLk6GJQsqaUBKTNV-1">
          <mxGeometry x="200" y="160" width="80" height="80" as="geometry" />
        </mxCell>
        <mxCell id="MbaDd006pOFyOzCAzOfE-5" value="Job Profile Screen" style="rounded=0;whiteSpace=wrap;html=1;" vertex="1" parent="WIyWlLk6GJQsqaUBKTNV-1">
          <mxGeometry x="180" y="280" width="120" height="60" as="geometry" />
        </mxCell>
      </root>
    </mxGraphModel>
  </diagram>
  <diagram id="PTa4CRFbbOWn0y502LBc" name="Page-2">
    <mxGraphModel dx="1434" dy="1992" grid="1" gridSize="10" guides="1" tooltips="1" connect="1" arrows="1" fold="1" page="1" pageScale="1" pageWidth="850" pageHeight="1100" math="0" shadow="0">
      <root>
        <mxCell id="0" />
        <mxCell id="1" parent="0" />
        <mxCell id="Ar-JnN7zSry3_fMuhGyG-1" style="edgeStyle=orthogonalEdgeStyle;rounded=0;orthogonalLoop=1;jettySize=auto;html=1;entryX=0;entryY=0.5;entryDx=0;entryDy=0;" edge="1" parent="1" source="Ar-JnN7zSry3_fMuhGyG-2" target="Ar-JnN7zSry3_fMuhGyG-4">
          <mxGeometry relative="1" as="geometry" />
        </mxCell>
        <mxCell id="Ar-JnN7zSry3_fMuhGyG-2" value="Job Profile Selection Screen" style="rounded=0;whiteSpace=wrap;html=1;" vertex="1" parent="1">
          <mxGeometry x="40" y="50" width="120" height="60" as="geometry" />
        </mxCell>
        <mxCell id="Ar-JnN7zSry3_fMuhGyG-3" style="edgeStyle=orthogonalEdgeStyle;rounded=0;orthogonalLoop=1;jettySize=auto;html=1;" edge="1" parent="1" source="Ar-JnN7zSry3_fMuhGyG-4" target="Ar-JnN7zSry3_fMuhGyG-6">
          <mxGeometry relative="1" as="geometry" />
        </mxCell>
        <mxCell id="Ar-JnN7zSry3_fMuhGyG-4" value="Add New Job Profile" style="rhombus;whiteSpace=wrap;html=1;" vertex="1" parent="1">
          <mxGeometry x="200" y="40" width="80" height="80" as="geometry" />
        </mxCell>
        <mxCell id="Ar-JnN7zSry3_fMuhGyG-19" style="edgeStyle=orthogonalEdgeStyle;rounded=0;orthogonalLoop=1;jettySize=auto;html=1;entryX=0;entryY=0.5;entryDx=0;entryDy=0;" edge="1" parent="1" source="Ar-JnN7zSry3_fMuhGyG-6" target="Ar-JnN7zSry3_fMuhGyG-8">
          <mxGeometry relative="1" as="geometry" />
        </mxCell>
        <mxCell id="Ar-JnN7zSry3_fMuhGyG-58" style="edgeStyle=orthogonalEdgeStyle;rounded=0;orthogonalLoop=1;jettySize=auto;html=1;entryX=0.5;entryY=1;entryDx=0;entryDy=0;" edge="1" parent="1" source="Ar-JnN7zSry3_fMuhGyG-6" target="Ar-JnN7zSry3_fMuhGyG-47">
          <mxGeometry relative="1" as="geometry">
            <Array as="points">
              <mxPoint x="420" />
              <mxPoint x="640" />
            </Array>
          </mxGeometry>
        </mxCell>
        <mxCell id="e3Np_l73u5C0NJpgtNIs-1" style="rounded=0;orthogonalLoop=1;jettySize=auto;html=1;entryX=1;entryY=0.5;entryDx=0;entryDy=0;" edge="1" parent="1" source="Ar-JnN7zSry3_fMuhGyG-6" target="Ar-JnN7zSry3_fMuhGyG-17">
          <mxGeometry relative="1" as="geometry" />
        </mxCell>
        <mxCell id="Ar-JnN7zSry3_fMuhGyG-6" value="Job Profile Selection Screen w/ Add New Job Profile Popup" style="rounded=0;whiteSpace=wrap;html=1;" vertex="1" parent="1">
          <mxGeometry x="320" y="50" width="120" height="60" as="geometry" />
        </mxCell>
        <mxCell id="Ar-JnN7zSry3_fMuhGyG-20" style="edgeStyle=orthogonalEdgeStyle;rounded=0;orthogonalLoop=1;jettySize=auto;html=1;entryX=0;entryY=0.5;entryDx=0;entryDy=0;" edge="1" parent="1" source="Ar-JnN7zSry3_fMuhGyG-8" target="Ar-JnN7zSry3_fMuhGyG-10">
          <mxGeometry relative="1" as="geometry" />
        </mxCell>
        <mxCell id="Ar-JnN7zSry3_fMuhGyG-26" style="rounded=0;orthogonalLoop=1;jettySize=auto;html=1;entryX=1;entryY=0.5;entryDx=0;entryDy=0;" edge="1" parent="1" source="Ar-JnN7zSry3_fMuhGyG-8" target="Ar-JnN7zSry3_fMuhGyG-17">
          <mxGeometry relative="1" as="geometry" />
        </mxCell>
        <mxCell id="Ar-JnN7zSry3_fMuhGyG-49" style="edgeStyle=orthogonalEdgeStyle;rounded=0;orthogonalLoop=1;jettySize=auto;html=1;entryX=0.5;entryY=1;entryDx=0;entryDy=0;" edge="1" parent="1" source="Ar-JnN7zSry3_fMuhGyG-8" target="Ar-JnN7zSry3_fMuhGyG-47">
          <mxGeometry relative="1" as="geometry">
            <Array as="points">
              <mxPoint x="520" />
              <mxPoint x="640" />
            </Array>
          </mxGeometry>
        </mxCell>
        <mxCell id="Ar-JnN7zSry3_fMuhGyG-8" value="Enter a Job Title" style="rhombus;whiteSpace=wrap;html=1;" vertex="1" parent="1">
          <mxGeometry x="480" y="40" width="80" height="80" as="geometry" />
        </mxCell>
        <mxCell id="Ar-JnN7zSry3_fMuhGyG-22" style="edgeStyle=orthogonalEdgeStyle;rounded=0;orthogonalLoop=1;jettySize=auto;html=1;entryX=0;entryY=0.5;entryDx=0;entryDy=0;" edge="1" parent="1" source="Ar-JnN7zSry3_fMuhGyG-10" target="Ar-JnN7zSry3_fMuhGyG-13">
          <mxGeometry relative="1" as="geometry" />
        </mxCell>
        <mxCell id="Ar-JnN7zSry3_fMuhGyG-27" style="rounded=0;orthogonalLoop=1;jettySize=auto;html=1;entryX=1;entryY=0.5;entryDx=0;entryDy=0;" edge="1" parent="1" source="Ar-JnN7zSry3_fMuhGyG-10" target="Ar-JnN7zSry3_fMuhGyG-17">
          <mxGeometry relative="1" as="geometry" />
        </mxCell>
        <mxCell id="Ar-JnN7zSry3_fMuhGyG-50" style="edgeStyle=orthogonalEdgeStyle;rounded=0;orthogonalLoop=1;jettySize=auto;html=1;entryX=0.5;entryY=1;entryDx=0;entryDy=0;" edge="1" parent="1" source="Ar-JnN7zSry3_fMuhGyG-10" target="Ar-JnN7zSry3_fMuhGyG-47">
          <mxGeometry relative="1" as="geometry" />
        </mxCell>
        <mxCell id="Ar-JnN7zSry3_fMuhGyG-10" value="Select Primary Income" style="rhombus;whiteSpace=wrap;html=1;" vertex="1" parent="1">
          <mxGeometry x="600" y="40" width="80" height="80" as="geometry" />
        </mxCell>
        <mxCell id="Ar-JnN7zSry3_fMuhGyG-28" style="rounded=0;orthogonalLoop=1;jettySize=auto;html=1;entryX=1;entryY=0.5;entryDx=0;entryDy=0;" edge="1" parent="1" source="Ar-JnN7zSry3_fMuhGyG-13" target="Ar-JnN7zSry3_fMuhGyG-17">
          <mxGeometry relative="1" as="geometry" />
        </mxCell>
        <mxCell id="Ar-JnN7zSry3_fMuhGyG-34" style="edgeStyle=orthogonalEdgeStyle;rounded=0;orthogonalLoop=1;jettySize=auto;html=1;entryX=0.5;entryY=0;entryDx=0;entryDy=0;" edge="1" parent="1" source="Ar-JnN7zSry3_fMuhGyG-13" target="Ar-JnN7zSry3_fMuhGyG-14">
          <mxGeometry relative="1" as="geometry">
            <mxPoint x="820" y="280" as="targetPoint" />
          </mxGeometry>
        </mxCell>
        <mxCell id="Ar-JnN7zSry3_fMuhGyG-35" value="If Primary Income&lt;div&gt;Hourly or Salary&lt;/div&gt;" style="edgeLabel;html=1;align=center;verticalAlign=middle;resizable=0;points=[];" vertex="1" connectable="0" parent="Ar-JnN7zSry3_fMuhGyG-34">
          <mxGeometry x="0.1293" y="-3" relative="1" as="geometry">
            <mxPoint as="offset" />
          </mxGeometry>
        </mxCell>
        <mxCell id="Ar-JnN7zSry3_fMuhGyG-45" style="edgeStyle=orthogonalEdgeStyle;rounded=0;orthogonalLoop=1;jettySize=auto;html=1;entryX=1;entryY=0.5;entryDx=0;entryDy=0;" edge="1" parent="1" source="Ar-JnN7zSry3_fMuhGyG-13" target="Ar-JnN7zSry3_fMuhGyG-23">
          <mxGeometry relative="1" as="geometry">
            <mxPoint x="1243.3333333333333" y="570" as="targetPoint" />
            <Array as="points">
              <mxPoint x="1230" y="60" />
              <mxPoint x="1230" y="560" />
            </Array>
          </mxGeometry>
        </mxCell>
        <mxCell id="Ar-JnN7zSry3_fMuhGyG-46" value="If Primary Income&lt;div&gt;Tips&lt;/div&gt;" style="edgeLabel;html=1;align=center;verticalAlign=middle;resizable=0;points=[];" vertex="1" connectable="0" parent="Ar-JnN7zSry3_fMuhGyG-45">
          <mxGeometry x="-0.8261" y="-1" relative="1" as="geometry">
            <mxPoint as="offset" />
          </mxGeometry>
        </mxCell>
        <mxCell id="Ar-JnN7zSry3_fMuhGyG-52" style="edgeStyle=orthogonalEdgeStyle;rounded=0;orthogonalLoop=1;jettySize=auto;html=1;entryX=0.5;entryY=1;entryDx=0;entryDy=0;" edge="1" parent="1" source="Ar-JnN7zSry3_fMuhGyG-13" target="Ar-JnN7zSry3_fMuhGyG-47">
          <mxGeometry relative="1" as="geometry">
            <Array as="points">
              <mxPoint x="760" />
              <mxPoint x="640" />
            </Array>
          </mxGeometry>
        </mxCell>
        <mxCell id="Ar-JnN7zSry3_fMuhGyG-53" value="If Primary Income&lt;div&gt;Hourly or Salary&lt;/div&gt;" style="edgeLabel;html=1;align=center;verticalAlign=middle;resizable=0;points=[];" vertex="1" connectable="0" parent="Ar-JnN7zSry3_fMuhGyG-52">
          <mxGeometry x="-0.3043" y="-3" relative="1" as="geometry">
            <mxPoint x="-20" as="offset" />
          </mxGeometry>
        </mxCell>
        <mxCell id="Ar-JnN7zSry3_fMuhGyG-13" value="Select Scheduling Type" style="rhombus;whiteSpace=wrap;html=1;" vertex="1" parent="1">
          <mxGeometry x="720" y="40" width="80" height="80" as="geometry" />
        </mxCell>
        <mxCell id="Ar-JnN7zSry3_fMuhGyG-36" style="rounded=0;orthogonalLoop=1;jettySize=auto;html=1;entryX=1;entryY=0.5;entryDx=0;entryDy=0;" edge="1" parent="1" source="Ar-JnN7zSry3_fMuhGyG-14" target="Ar-JnN7zSry3_fMuhGyG-17">
          <mxGeometry relative="1" as="geometry">
            <mxPoint x="400" y="480" as="targetPoint" />
          </mxGeometry>
        </mxCell>
        <mxCell id="Ar-JnN7zSry3_fMuhGyG-38" style="edgeStyle=orthogonalEdgeStyle;rounded=0;orthogonalLoop=1;jettySize=auto;html=1;exitX=1;exitY=0.5;exitDx=0;exitDy=0;entryX=0;entryY=0.5;entryDx=0;entryDy=0;" edge="1" parent="1" source="Ar-JnN7zSry3_fMuhGyG-14" target="Ar-JnN7zSry3_fMuhGyG-37">
          <mxGeometry relative="1" as="geometry">
            <mxPoint x="910" y="279.58" as="sourcePoint" />
            <mxPoint x="1050" y="279.58" as="targetPoint" />
          </mxGeometry>
        </mxCell>
        <mxCell id="Ar-JnN7zSry3_fMuhGyG-39" value="If Primary Income&lt;div&gt;Salary&lt;/div&gt;" style="edgeLabel;html=1;align=center;verticalAlign=middle;resizable=0;points=[];" vertex="1" connectable="0" parent="Ar-JnN7zSry3_fMuhGyG-38">
          <mxGeometry x="0.1364" y="3" relative="1" as="geometry">
            <mxPoint x="-7" y="-17" as="offset" />
          </mxGeometry>
        </mxCell>
        <mxCell id="Ar-JnN7zSry3_fMuhGyG-40" style="rounded=0;orthogonalLoop=1;jettySize=auto;html=1;entryX=1;entryY=0.5;entryDx=0;entryDy=0;" edge="1" parent="1" source="Ar-JnN7zSry3_fMuhGyG-14" target="Ar-JnN7zSry3_fMuhGyG-23">
          <mxGeometry relative="1" as="geometry">
            <mxPoint x="850" y="560" as="targetPoint" />
          </mxGeometry>
        </mxCell>
        <mxCell id="Ar-JnN7zSry3_fMuhGyG-41" value="If Primary Income Hourly" style="edgeLabel;html=1;align=center;verticalAlign=middle;resizable=0;points=[];" vertex="1" connectable="0" parent="Ar-JnN7zSry3_fMuhGyG-40">
          <mxGeometry x="-0.7103" relative="1" as="geometry">
            <mxPoint x="-93" y="93" as="offset" />
          </mxGeometry>
        </mxCell>
        <mxCell id="Ar-JnN7zSry3_fMuhGyG-14" value="Enter Pay Rate" style="rhombus;whiteSpace=wrap;html=1;" vertex="1" parent="1">
          <mxGeometry x="810" y="240" width="80" height="80" as="geometry" />
        </mxCell>
        <mxCell id="Ar-JnN7zSry3_fMuhGyG-16" style="rounded=0;orthogonalLoop=1;jettySize=auto;html=1;entryX=0.5;entryY=1;entryDx=0;entryDy=0;exitX=0;exitY=0.5;exitDx=0;exitDy=0;" edge="1" parent="1" source="Ar-JnN7zSry3_fMuhGyG-17" target="Ar-JnN7zSry3_fMuhGyG-2">
          <mxGeometry relative="1" as="geometry" />
        </mxCell>
        <mxCell id="Ar-JnN7zSry3_fMuhGyG-17" value="Cancel" style="rhombus;whiteSpace=wrap;html=1;" vertex="1" parent="1">
          <mxGeometry x="300" y="240" width="80" height="80" as="geometry" />
        </mxCell>
        <mxCell id="Ar-JnN7zSry3_fMuhGyG-60" style="rounded=0;orthogonalLoop=1;jettySize=auto;html=1;entryX=1;entryY=0.5;entryDx=0;entryDy=0;" edge="1" parent="1" source="Ar-JnN7zSry3_fMuhGyG-23" target="Ar-JnN7zSry3_fMuhGyG-59">
          <mxGeometry relative="1" as="geometry" />
        </mxCell>
        <mxCell id="Ar-JnN7zSry3_fMuhGyG-23" value="Done" style="rhombus;whiteSpace=wrap;html=1;" vertex="1" parent="1">
          <mxGeometry x="490" y="520" width="80" height="80" as="geometry" />
        </mxCell>
        <mxCell id="Ar-JnN7zSry3_fMuhGyG-44" style="rounded=0;orthogonalLoop=1;jettySize=auto;html=1;entryX=1;entryY=0.5;entryDx=0;entryDy=0;" edge="1" parent="1" source="Ar-JnN7zSry3_fMuhGyG-37" target="Ar-JnN7zSry3_fMuhGyG-23">
          <mxGeometry relative="1" as="geometry" />
        </mxCell>
        <mxCell id="Ar-JnN7zSry3_fMuhGyG-37" value="Enter Frequency" style="rhombus;whiteSpace=wrap;html=1;" vertex="1" parent="1">
          <mxGeometry x="1020" y="240" width="80" height="80" as="geometry" />
        </mxCell>
        <mxCell id="Ar-JnN7zSry3_fMuhGyG-55" style="edgeStyle=orthogonalEdgeStyle;rounded=0;orthogonalLoop=1;jettySize=auto;html=1;entryX=1;entryY=0.5;entryDx=0;entryDy=0;" edge="1" parent="1" source="Ar-JnN7zSry3_fMuhGyG-47" target="Ar-JnN7zSry3_fMuhGyG-54">
          <mxGeometry relative="1" as="geometry" />
        </mxCell>
        <mxCell id="Ar-JnN7zSry3_fMuhGyG-47" value="Done" style="rhombus;whiteSpace=wrap;html=1;" vertex="1" parent="1">
          <mxGeometry x="600" y="-150" width="80" height="80" as="geometry" />
        </mxCell>
        <mxCell id="Ar-JnN7zSry3_fMuhGyG-56" style="edgeStyle=orthogonalEdgeStyle;rounded=0;orthogonalLoop=1;jettySize=auto;html=1;entryX=0.5;entryY=0;entryDx=0;entryDy=0;" edge="1" parent="1" source="Ar-JnN7zSry3_fMuhGyG-54" target="Ar-JnN7zSry3_fMuhGyG-6">
          <mxGeometry relative="1" as="geometry" />
        </mxCell>
        <mxCell id="Ar-JnN7zSry3_fMuhGyG-54" value="Error Popup&lt;div&gt;&quot;Must Complete all Fields!&quot;&lt;/div&gt;" style="rounded=0;whiteSpace=wrap;html=1;" vertex="1" parent="1">
          <mxGeometry x="320" y="-140" width="120" height="60" as="geometry" />
        </mxCell>
        <mxCell id="e3Np_l73u5C0NJpgtNIs-2" style="rounded=0;orthogonalLoop=1;jettySize=auto;html=1;entryX=0.5;entryY=1;entryDx=0;entryDy=0;" edge="1" parent="1" source="Ar-JnN7zSry3_fMuhGyG-59" target="Ar-JnN7zSry3_fMuhGyG-2">
          <mxGeometry relative="1" as="geometry" />
        </mxCell>
        <mxCell id="Ar-JnN7zSry3_fMuhGyG-59" value="New profile added to Job Profile Selection Screen" style="rounded=0;whiteSpace=wrap;html=1;" vertex="1" parent="1">
          <mxGeometry x="160" y="330" width="120" height="60" as="geometry" />
        </mxCell>
      </root>
    </mxGraphModel>
  </diagram>
  <diagram id="XYapKlo4QuYJAVvVVFqS" name="Page-3">
    <mxGraphModel dx="989" dy="615" grid="1" gridSize="10" guides="1" tooltips="1" connect="1" arrows="1" fold="1" page="1" pageScale="1" pageWidth="850" pageHeight="1100" math="0" shadow="0">
      <root>
        <mxCell id="0" />
        <mxCell id="1" parent="0" />
        <mxCell id="X46z-mrSrJBstyy3JIv7-2" style="edgeStyle=orthogonalEdgeStyle;rounded=0;orthogonalLoop=1;jettySize=auto;html=1;entryX=0;entryY=0.5;entryDx=0;entryDy=0;" edge="1" parent="1" source="T_PM97dpjkZfJquG6Kot-1" target="T_PM97dpjkZfJquG6Kot-2">
          <mxGeometry relative="1" as="geometry" />
        </mxCell>
        <mxCell id="T_PM97dpjkZfJquG6Kot-1" value="Job Profile Selection Screen" style="rounded=0;whiteSpace=wrap;html=1;" vertex="1" parent="1">
          <mxGeometry x="40" y="160" width="120" height="60" as="geometry" />
        </mxCell>
        <mxCell id="X46z-mrSrJBstyy3JIv7-3" style="edgeStyle=orthogonalEdgeStyle;rounded=0;orthogonalLoop=1;jettySize=auto;html=1;entryX=0;entryY=0.5;entryDx=0;entryDy=0;" edge="1" parent="1" source="T_PM97dpjkZfJquG6Kot-2" target="T_PM97dpjkZfJquG6Kot-5">
          <mxGeometry relative="1" as="geometry" />
        </mxCell>
        <mxCell id="T_PM97dpjkZfJquG6Kot-2" value="Delete Job Profile" style="rhombus;whiteSpace=wrap;html=1;" vertex="1" parent="1">
          <mxGeometry x="200" y="150" width="80" height="80" as="geometry" />
        </mxCell>
        <mxCell id="X46z-mrSrJBstyy3JIv7-5" style="edgeStyle=orthogonalEdgeStyle;rounded=0;orthogonalLoop=1;jettySize=auto;html=1;entryX=0;entryY=0.5;entryDx=0;entryDy=0;" edge="1" parent="1" source="T_PM97dpjkZfJquG6Kot-3" target="T_PM97dpjkZfJquG6Kot-4">
          <mxGeometry relative="1" as="geometry" />
        </mxCell>
        <mxCell id="T_PM97dpjkZfJquG6Kot-3" value="Dropdown Arrow" style="rhombus;whiteSpace=wrap;html=1;" vertex="1" parent="1">
          <mxGeometry x="480" y="150" width="80" height="80" as="geometry" />
        </mxCell>
        <mxCell id="X46z-mrSrJBstyy3JIv7-7" style="edgeStyle=orthogonalEdgeStyle;rounded=0;orthogonalLoop=1;jettySize=auto;html=1;entryX=0.5;entryY=0;entryDx=0;entryDy=0;" edge="1" parent="1" source="T_PM97dpjkZfJquG6Kot-4" target="X46z-mrSrJBstyy3JIv7-6">
          <mxGeometry relative="1" as="geometry" />
        </mxCell>
        <mxCell id="T_PM97dpjkZfJquG6Kot-4" value="Dropdown Menu" style="rounded=0;whiteSpace=wrap;html=1;" vertex="1" parent="1">
          <mxGeometry x="600" y="160" width="120" height="60" as="geometry" />
        </mxCell>
        <mxCell id="X46z-mrSrJBstyy3JIv7-4" style="edgeStyle=orthogonalEdgeStyle;rounded=0;orthogonalLoop=1;jettySize=auto;html=1;entryX=0;entryY=0.5;entryDx=0;entryDy=0;" edge="1" parent="1" source="T_PM97dpjkZfJquG6Kot-5" target="T_PM97dpjkZfJquG6Kot-3">
          <mxGeometry relative="1" as="geometry" />
        </mxCell>
        <mxCell id="X46z-mrSrJBstyy3JIv7-13" style="rounded=0;orthogonalLoop=1;jettySize=auto;html=1;entryX=1;entryY=0.5;entryDx=0;entryDy=0;" edge="1" parent="1" source="T_PM97dpjkZfJquG6Kot-5" target="X46z-mrSrJBstyy3JIv7-11">
          <mxGeometry relative="1" as="geometry" />
        </mxCell>
        <mxCell id="X46z-mrSrJBstyy3JIv7-15" style="rounded=0;orthogonalLoop=1;jettySize=auto;html=1;entryX=0.5;entryY=0;entryDx=0;entryDy=0;" edge="1" parent="1" source="T_PM97dpjkZfJquG6Kot-5" target="X46z-mrSrJBstyy3JIv7-14">
          <mxGeometry relative="1" as="geometry" />
        </mxCell>
        <mxCell id="T_PM97dpjkZfJquG6Kot-5" value="Job Profile Selection Screen w/ Delete Job Profile Popup" style="rounded=0;whiteSpace=wrap;html=1;" vertex="1" parent="1">
          <mxGeometry x="320" y="160" width="120" height="60" as="geometry" />
        </mxCell>
        <mxCell id="X46z-mrSrJBstyy3JIv7-9" style="edgeStyle=orthogonalEdgeStyle;rounded=0;orthogonalLoop=1;jettySize=auto;html=1;entryX=1;entryY=0.5;entryDx=0;entryDy=0;" edge="1" parent="1" source="X46z-mrSrJBstyy3JIv7-6" target="X46z-mrSrJBstyy3JIv7-8">
          <mxGeometry relative="1" as="geometry" />
        </mxCell>
        <mxCell id="X46z-mrSrJBstyy3JIv7-6" value="Select Menu Option" style="rhombus;whiteSpace=wrap;html=1;" vertex="1" parent="1">
          <mxGeometry x="620" y="260" width="80" height="80" as="geometry" />
        </mxCell>
        <mxCell id="X46z-mrSrJBstyy3JIv7-10" style="rounded=0;orthogonalLoop=1;jettySize=auto;html=1;entryX=0.75;entryY=1;entryDx=0;entryDy=0;" edge="1" parent="1" source="X46z-mrSrJBstyy3JIv7-8" target="T_PM97dpjkZfJquG6Kot-5">
          <mxGeometry relative="1" as="geometry" />
        </mxCell>
        <mxCell id="X46z-mrSrJBstyy3JIv7-8" value="Delete Job Profile Popup updates selected Profile" style="rounded=0;whiteSpace=wrap;html=1;" vertex="1" parent="1">
          <mxGeometry x="470" y="270" width="120" height="60" as="geometry" />
        </mxCell>
        <mxCell id="X46z-mrSrJBstyy3JIv7-12" style="rounded=0;orthogonalLoop=1;jettySize=auto;html=1;entryX=0.5;entryY=1;entryDx=0;entryDy=0;exitX=0;exitY=0.5;exitDx=0;exitDy=0;" edge="1" parent="1" source="X46z-mrSrJBstyy3JIv7-11" target="T_PM97dpjkZfJquG6Kot-1">
          <mxGeometry relative="1" as="geometry" />
        </mxCell>
        <mxCell id="X46z-mrSrJBstyy3JIv7-11" value="Cancel" style="rhombus;whiteSpace=wrap;html=1;" vertex="1" parent="1">
          <mxGeometry x="200" y="250" width="80" height="80" as="geometry" />
        </mxCell>
        <mxCell id="X46z-mrSrJBstyy3JIv7-17" style="edgeStyle=orthogonalEdgeStyle;rounded=0;orthogonalLoop=1;jettySize=auto;html=1;entryX=1;entryY=0.5;entryDx=0;entryDy=0;" edge="1" parent="1" source="X46z-mrSrJBstyy3JIv7-14" target="X46z-mrSrJBstyy3JIv7-16">
          <mxGeometry relative="1" as="geometry" />
        </mxCell>
        <mxCell id="X46z-mrSrJBstyy3JIv7-14" value="Done" style="rhombus;whiteSpace=wrap;html=1;" vertex="1" parent="1">
          <mxGeometry x="340" y="350" width="80" height="80" as="geometry" />
        </mxCell>
        <mxCell id="X46z-mrSrJBstyy3JIv7-18" style="rounded=0;orthogonalLoop=1;jettySize=auto;html=1;entryX=0.5;entryY=1;entryDx=0;entryDy=0;endArrow=none;endFill=0;" edge="1" parent="1" source="X46z-mrSrJBstyy3JIv7-16" target="T_PM97dpjkZfJquG6Kot-1">
          <mxGeometry relative="1" as="geometry" />
        </mxCell>
        <mxCell id="X46z-mrSrJBstyy3JIv7-16" value="Selected Job Profile is deleted" style="rounded=0;whiteSpace=wrap;html=1;" vertex="1" parent="1">
          <mxGeometry x="40" y="360" width="120" height="60" as="geometry" />
        </mxCell>
      </root>
    </mxGraphModel>
  </diagram>
  <diagram id="4YZ9FIs6RP5A27gpDzdh" name="Tip Earnings Journey">
    <mxGraphModel dx="819" dy="510" grid="1" gridSize="10" guides="1" tooltips="1" connect="1" arrows="1" fold="1" page="1" pageScale="1" pageWidth="850" pageHeight="1100" math="0" shadow="0">
      <root>
        <mxCell id="0" />
        <mxCell id="1" parent="0" />
        <mxCell id="BdYE1s3OoybSDVsj2Gza-11" style="rounded=0;orthogonalLoop=1;jettySize=auto;html=1;entryX=0;entryY=0.5;entryDx=0;entryDy=0;" edge="1" parent="1" source="LReUZ2zuc8hddFijXjOU-1" target="BdYE1s3OoybSDVsj2Gza-1">
          <mxGeometry relative="1" as="geometry" />
        </mxCell>
        <mxCell id="LReUZ2zuc8hddFijXjOU-1" value="Job Profile Screen" style="rounded=0;whiteSpace=wrap;html=1;" vertex="1" parent="1">
          <mxGeometry x="30" y="40" width="120" height="60" as="geometry" />
        </mxCell>
        <mxCell id="BdYE1s3OoybSDVsj2Gza-12" style="rounded=0;orthogonalLoop=1;jettySize=auto;html=1;entryX=0;entryY=0.5;entryDx=0;entryDy=0;" edge="1" parent="1" source="BdYE1s3OoybSDVsj2Gza-1" target="BdYE1s3OoybSDVsj2Gza-2">
          <mxGeometry relative="1" as="geometry" />
        </mxCell>
        <mxCell id="BdYE1s3OoybSDVsj2Gza-1" value="Earnings" style="rhombus;whiteSpace=wrap;html=1;" vertex="1" parent="1">
          <mxGeometry x="220" y="30" width="80" height="80" as="geometry" />
        </mxCell>
        <mxCell id="BdYE1s3OoybSDVsj2Gza-25" style="rounded=0;orthogonalLoop=1;jettySize=auto;html=1;entryX=1;entryY=0.5;entryDx=0;entryDy=0;" edge="1" parent="1" source="BdYE1s3OoybSDVsj2Gza-2" target="BdYE1s3OoybSDVsj2Gza-7">
          <mxGeometry relative="1" as="geometry" />
        </mxCell>
        <mxCell id="kK6QtjkPRUsyy0R--ei2-5" style="edgeStyle=none;rounded=0;orthogonalLoop=1;jettySize=auto;html=1;entryX=0.5;entryY=0;entryDx=0;entryDy=0;" edge="1" parent="1" source="BdYE1s3OoybSDVsj2Gza-2" target="BdYE1s3OoybSDVsj2Gza-6">
          <mxGeometry relative="1" as="geometry" />
        </mxCell>
        <mxCell id="kK6QtjkPRUsyy0R--ei2-7" style="edgeStyle=none;rounded=0;orthogonalLoop=1;jettySize=auto;html=1;exitX=1;exitY=0.5;exitDx=0;exitDy=0;entryX=0;entryY=0.5;entryDx=0;entryDy=0;" edge="1" parent="1" source="BdYE1s3OoybSDVsj2Gza-2" target="BdYE1s3OoybSDVsj2Gza-9">
          <mxGeometry relative="1" as="geometry" />
        </mxCell>
        <mxCell id="kK6QtjkPRUsyy0R--ei2-12" style="edgeStyle=none;rounded=0;orthogonalLoop=1;jettySize=auto;html=1;exitX=1;exitY=1;exitDx=0;exitDy=0;entryX=0.5;entryY=0;entryDx=0;entryDy=0;" edge="1" parent="1" source="BdYE1s3OoybSDVsj2Gza-2" target="BdYE1s3OoybSDVsj2Gza-4">
          <mxGeometry relative="1" as="geometry" />
        </mxCell>
        <mxCell id="BdYE1s3OoybSDVsj2Gza-2" value="Tip Earnings Screen" style="rounded=0;whiteSpace=wrap;html=1;" vertex="1" parent="1">
          <mxGeometry x="340" y="40" width="120" height="60" as="geometry" />
        </mxCell>
        <mxCell id="BdYE1s3OoybSDVsj2Gza-4" value="Update Earnings" style="rhombus;whiteSpace=wrap;html=1;" vertex="1" parent="1">
          <mxGeometry x="460" y="150" width="80" height="80" as="geometry" />
        </mxCell>
        <mxCell id="kK6QtjkPRUsyy0R--ei2-6" style="edgeStyle=orthogonalEdgeStyle;rounded=0;orthogonalLoop=1;jettySize=auto;html=1;entryX=1;entryY=0.5;entryDx=0;entryDy=0;" edge="1" parent="1" source="BdYE1s3OoybSDVsj2Gza-6" target="BdYE1s3OoybSDVsj2Gza-21">
          <mxGeometry relative="1" as="geometry">
            <Array as="points">
              <mxPoint x="400" y="340" />
            </Array>
          </mxGeometry>
        </mxCell>
        <mxCell id="BdYE1s3OoybSDVsj2Gza-6" value="Update" style="rhombus;whiteSpace=wrap;html=1;" vertex="1" parent="1">
          <mxGeometry x="360" y="230" width="80" height="80" as="geometry" />
        </mxCell>
        <mxCell id="kK6QtjkPRUsyy0R--ei2-4" style="edgeStyle=orthogonalEdgeStyle;rounded=0;orthogonalLoop=1;jettySize=auto;html=1;entryX=0.5;entryY=1;entryDx=0;entryDy=0;" edge="1" parent="1" source="BdYE1s3OoybSDVsj2Gza-7" target="LReUZ2zuc8hddFijXjOU-1">
          <mxGeometry relative="1" as="geometry" />
        </mxCell>
        <mxCell id="BdYE1s3OoybSDVsj2Gza-7" value="Cancel" style="rhombus;whiteSpace=wrap;html=1;" vertex="1" parent="1">
          <mxGeometry x="220" y="150" width="80" height="80" as="geometry" />
        </mxCell>
        <mxCell id="BdYE1s3OoybSDVsj2Gza-18" style="rounded=0;orthogonalLoop=1;jettySize=auto;html=1;" edge="1" parent="1" source="BdYE1s3OoybSDVsj2Gza-9" target="BdYE1s3OoybSDVsj2Gza-10">
          <mxGeometry relative="1" as="geometry" />
        </mxCell>
        <mxCell id="BdYE1s3OoybSDVsj2Gza-9" value="Select Date" style="rhombus;whiteSpace=wrap;html=1;" vertex="1" parent="1">
          <mxGeometry x="590" y="30" width="80" height="80" as="geometry" />
        </mxCell>
        <mxCell id="kK6QtjkPRUsyy0R--ei2-14" style="edgeStyle=none;rounded=0;orthogonalLoop=1;jettySize=auto;html=1;entryX=1;entryY=0.75;entryDx=0;entryDy=0;" edge="1" parent="1" source="BdYE1s3OoybSDVsj2Gza-10" target="BdYE1s3OoybSDVsj2Gza-2">
          <mxGeometry relative="1" as="geometry" />
        </mxCell>
        <mxCell id="BdYE1s3OoybSDVsj2Gza-10" value="Date for Current Date Updates" style="rounded=0;whiteSpace=wrap;html=1;" vertex="1" parent="1">
          <mxGeometry x="570" y="140" width="120" height="60" as="geometry" />
        </mxCell>
        <mxCell id="BdYE1s3OoybSDVsj2Gza-21" value="Earnings for selected date are updated" style="rounded=0;whiteSpace=wrap;html=1;" vertex="1" parent="1">
          <mxGeometry x="200" y="310" width="120" height="60" as="geometry" />
        </mxCell>
        <mxCell id="wN-53X20-FULiHaAMWkZ-1" style="edgeStyle=none;rounded=0;orthogonalLoop=1;jettySize=auto;html=1;exitX=0.427;exitY=0.1;exitDx=0;exitDy=0;entryX=0.899;entryY=0.938;entryDx=0;entryDy=0;entryPerimeter=0;exitPerimeter=0;" edge="1" parent="1" source="BdYE1s3OoybSDVsj2Gza-4" target="BdYE1s3OoybSDVsj2Gza-2">
          <mxGeometry relative="1" as="geometry" />
        </mxCell>
        <mxCell id="wN-53X20-FULiHaAMWkZ-2" style="edgeStyle=none;rounded=0;orthogonalLoop=1;jettySize=auto;html=1;entryX=0.446;entryY=0.967;entryDx=0;entryDy=0;entryPerimeter=0;" edge="1" parent="1" source="BdYE1s3OoybSDVsj2Gza-21" target="BdYE1s3OoybSDVsj2Gza-2">
          <mxGeometry relative="1" as="geometry" />
        </mxCell>
      </root>
    </mxGraphModel>
  </diagram>
  <diagram name="Hourly Earnings Journey" id="Qq-75n8ZPjL_0mF2Zew5">
    <mxGraphModel dx="819" dy="510" grid="1" gridSize="10" guides="1" tooltips="1" connect="1" arrows="1" fold="1" page="1" pageScale="1" pageWidth="850" pageHeight="1100" math="0" shadow="0">
      <root>
        <mxCell id="SZtam4s-HLU0rwV9N7Je-0" />
        <mxCell id="SZtam4s-HLU0rwV9N7Je-1" parent="SZtam4s-HLU0rwV9N7Je-0" />
        <mxCell id="SZtam4s-HLU0rwV9N7Je-2" style="rounded=0;orthogonalLoop=1;jettySize=auto;html=1;entryX=0;entryY=0.5;entryDx=0;entryDy=0;" edge="1" parent="SZtam4s-HLU0rwV9N7Je-1" source="SZtam4s-HLU0rwV9N7Je-3" target="SZtam4s-HLU0rwV9N7Je-5">
          <mxGeometry relative="1" as="geometry" />
        </mxCell>
        <mxCell id="SZtam4s-HLU0rwV9N7Je-3" value="Job Profile Screen" style="rounded=0;whiteSpace=wrap;html=1;" vertex="1" parent="SZtam4s-HLU0rwV9N7Je-1">
          <mxGeometry x="40" y="180" width="120" height="60" as="geometry" />
        </mxCell>
        <mxCell id="SZtam4s-HLU0rwV9N7Je-4" style="rounded=0;orthogonalLoop=1;jettySize=auto;html=1;entryX=0;entryY=0.5;entryDx=0;entryDy=0;" edge="1" parent="SZtam4s-HLU0rwV9N7Je-1" source="SZtam4s-HLU0rwV9N7Je-5" target="SZtam4s-HLU0rwV9N7Je-9">
          <mxGeometry relative="1" as="geometry" />
        </mxCell>
        <mxCell id="SZtam4s-HLU0rwV9N7Je-5" value="Earnings" style="rhombus;whiteSpace=wrap;html=1;" vertex="1" parent="SZtam4s-HLU0rwV9N7Je-1">
          <mxGeometry x="200" y="170" width="80" height="80" as="geometry" />
        </mxCell>
        <mxCell id="SZtam4s-HLU0rwV9N7Je-6" style="rounded=0;orthogonalLoop=1;jettySize=auto;html=1;entryX=0.5;entryY=0;entryDx=0;entryDy=0;" edge="1" parent="SZtam4s-HLU0rwV9N7Je-1" source="SZtam4s-HLU0rwV9N7Je-9" target="SZtam4s-HLU0rwV9N7Je-20">
          <mxGeometry relative="1" as="geometry" />
        </mxCell>
        <mxCell id="SZtam4s-HLU0rwV9N7Je-7" style="rounded=0;orthogonalLoop=1;jettySize=auto;html=1;entryX=1;entryY=0.5;entryDx=0;entryDy=0;" edge="1" parent="SZtam4s-HLU0rwV9N7Je-1" source="SZtam4s-HLU0rwV9N7Je-9" target="SZtam4s-HLU0rwV9N7Je-18">
          <mxGeometry relative="1" as="geometry" />
        </mxCell>
        <mxCell id="J8Sz-78w9BnrKfgGODbs-11" style="edgeStyle=none;rounded=0;orthogonalLoop=1;jettySize=auto;html=1;entryX=0.5;entryY=0;entryDx=0;entryDy=0;exitX=0.932;exitY=1.014;exitDx=0;exitDy=0;exitPerimeter=0;" edge="1" parent="SZtam4s-HLU0rwV9N7Je-1" source="SZtam4s-HLU0rwV9N7Je-9" target="J8Sz-78w9BnrKfgGODbs-10">
          <mxGeometry relative="1" as="geometry" />
        </mxCell>
        <mxCell id="vVFu30aAsFtnLqjCQm3Q-2" style="edgeStyle=none;rounded=0;orthogonalLoop=1;jettySize=auto;html=1;exitX=1;exitY=1;exitDx=0;exitDy=0;entryX=0;entryY=0.5;entryDx=0;entryDy=0;" edge="1" parent="SZtam4s-HLU0rwV9N7Je-1" source="SZtam4s-HLU0rwV9N7Je-9" target="SZtam4s-HLU0rwV9N7Je-12">
          <mxGeometry relative="1" as="geometry" />
        </mxCell>
        <mxCell id="vVFu30aAsFtnLqjCQm3Q-4" style="edgeStyle=none;rounded=0;orthogonalLoop=1;jettySize=auto;html=1;entryX=0;entryY=0.5;entryDx=0;entryDy=0;" edge="1" parent="SZtam4s-HLU0rwV9N7Je-1" source="SZtam4s-HLU0rwV9N7Je-9" target="SZtam4s-HLU0rwV9N7Je-16">
          <mxGeometry relative="1" as="geometry" />
        </mxCell>
        <mxCell id="SZtam4s-HLU0rwV9N7Je-9" value="Hourly Earnings Screen" style="rounded=0;whiteSpace=wrap;html=1;" vertex="1" parent="SZtam4s-HLU0rwV9N7Je-1">
          <mxGeometry x="320" y="180" width="120" height="60" as="geometry" />
        </mxCell>
        <mxCell id="SZtam4s-HLU0rwV9N7Je-12" value="Update Hours" style="rhombus;whiteSpace=wrap;html=1;" vertex="1" parent="SZtam4s-HLU0rwV9N7Je-1">
          <mxGeometry x="530" y="260" width="80" height="80" as="geometry" />
        </mxCell>
        <mxCell id="SZtam4s-HLU0rwV9N7Je-16" value="Update" style="rhombus;whiteSpace=wrap;html=1;" vertex="1" parent="SZtam4s-HLU0rwV9N7Je-1">
          <mxGeometry x="640" y="170" width="80" height="80" as="geometry" />
        </mxCell>
        <mxCell id="SZtam4s-HLU0rwV9N7Je-17" style="rounded=0;orthogonalLoop=1;jettySize=auto;html=1;entryX=0.5;entryY=1;entryDx=0;entryDy=0;edgeStyle=orthogonalEdgeStyle;" edge="1" parent="SZtam4s-HLU0rwV9N7Je-1" source="SZtam4s-HLU0rwV9N7Je-18" target="SZtam4s-HLU0rwV9N7Je-3">
          <mxGeometry relative="1" as="geometry" />
        </mxCell>
        <mxCell id="SZtam4s-HLU0rwV9N7Je-18" value="Cancel" style="rhombus;whiteSpace=wrap;html=1;" vertex="1" parent="SZtam4s-HLU0rwV9N7Je-1">
          <mxGeometry x="60" y="290" width="80" height="80" as="geometry" />
        </mxCell>
        <mxCell id="SZtam4s-HLU0rwV9N7Je-19" style="rounded=0;orthogonalLoop=1;jettySize=auto;html=1;" edge="1" parent="SZtam4s-HLU0rwV9N7Je-1" source="SZtam4s-HLU0rwV9N7Je-20" target="SZtam4s-HLU0rwV9N7Je-24">
          <mxGeometry relative="1" as="geometry" />
        </mxCell>
        <mxCell id="SZtam4s-HLU0rwV9N7Je-20" value="Select Date" style="rhombus;whiteSpace=wrap;html=1;" vertex="1" parent="SZtam4s-HLU0rwV9N7Je-1">
          <mxGeometry x="340" y="310" width="80" height="80" as="geometry" />
        </mxCell>
        <mxCell id="J8Sz-78w9BnrKfgGODbs-0" style="edgeStyle=orthogonalEdgeStyle;rounded=0;orthogonalLoop=1;jettySize=auto;html=1;entryX=0.683;entryY=1.017;entryDx=0;entryDy=0;exitX=0.858;exitY=0;exitDx=0;exitDy=0;exitPerimeter=0;entryPerimeter=0;" edge="1" parent="SZtam4s-HLU0rwV9N7Je-1" source="SZtam4s-HLU0rwV9N7Je-24" target="SZtam4s-HLU0rwV9N7Je-9">
          <mxGeometry relative="1" as="geometry">
            <Array as="points">
              <mxPoint x="430" y="430" />
              <mxPoint x="430" y="300" />
              <mxPoint x="402" y="300" />
            </Array>
          </mxGeometry>
        </mxCell>
        <mxCell id="SZtam4s-HLU0rwV9N7Je-24" value="Current Earnings Date Updates" style="rounded=0;whiteSpace=wrap;html=1;" vertex="1" parent="SZtam4s-HLU0rwV9N7Je-1">
          <mxGeometry x="320" y="430" width="120" height="60" as="geometry" />
        </mxCell>
        <mxCell id="vVFu30aAsFtnLqjCQm3Q-8" style="edgeStyle=none;rounded=0;orthogonalLoop=1;jettySize=auto;html=1;entryX=0.25;entryY=1;entryDx=0;entryDy=0;" edge="1" parent="SZtam4s-HLU0rwV9N7Je-1" source="Elv3s8Ltif0wnthRgGWn-6" target="SZtam4s-HLU0rwV9N7Je-9">
          <mxGeometry relative="1" as="geometry" />
        </mxCell>
        <mxCell id="Elv3s8Ltif0wnthRgGWn-6" value="Hours and Hourly Rate for selected date is updated" style="rounded=0;whiteSpace=wrap;html=1;" vertex="1" parent="SZtam4s-HLU0rwV9N7Je-1">
          <mxGeometry x="120" y="530" width="120" height="60" as="geometry" />
        </mxCell>
        <mxCell id="vVFu30aAsFtnLqjCQm3Q-9" style="edgeStyle=none;rounded=0;orthogonalLoop=1;jettySize=auto;html=1;entryX=0.813;entryY=1.014;entryDx=0;entryDy=0;entryPerimeter=0;exitX=0.391;exitY=0.043;exitDx=0;exitDy=0;exitPerimeter=0;" edge="1" parent="SZtam4s-HLU0rwV9N7Je-1" source="J8Sz-78w9BnrKfgGODbs-10" target="SZtam4s-HLU0rwV9N7Je-9">
          <mxGeometry relative="1" as="geometry">
            <mxPoint x="420" y="270" as="targetPoint" />
          </mxGeometry>
        </mxCell>
        <mxCell id="J8Sz-78w9BnrKfgGODbs-10" value="Update Hourly Rate" style="rhombus;whiteSpace=wrap;html=1;" vertex="1" parent="SZtam4s-HLU0rwV9N7Je-1">
          <mxGeometry x="480" y="330" width="80" height="80" as="geometry" />
        </mxCell>
        <mxCell id="vVFu30aAsFtnLqjCQm3Q-5" style="edgeStyle=orthogonalEdgeStyle;rounded=0;orthogonalLoop=1;jettySize=auto;html=1;entryX=1.008;entryY=0.581;entryDx=0;entryDy=0;entryPerimeter=0;" edge="1" parent="SZtam4s-HLU0rwV9N7Je-1" source="SZtam4s-HLU0rwV9N7Je-16" target="Elv3s8Ltif0wnthRgGWn-6">
          <mxGeometry relative="1" as="geometry">
            <Array as="points">
              <mxPoint x="680" y="565" />
            </Array>
          </mxGeometry>
        </mxCell>
        <mxCell id="vVFu30aAsFtnLqjCQm3Q-10" style="edgeStyle=none;rounded=0;orthogonalLoop=1;jettySize=auto;html=1;exitX=0.066;exitY=0.439;exitDx=0;exitDy=0;entryX=0.98;entryY=0.862;entryDx=0;entryDy=0;entryPerimeter=0;exitPerimeter=0;" edge="1" parent="SZtam4s-HLU0rwV9N7Je-1" source="SZtam4s-HLU0rwV9N7Je-12" target="SZtam4s-HLU0rwV9N7Je-9">
          <mxGeometry relative="1" as="geometry" />
        </mxCell>
      </root>
    </mxGraphModel>
  </diagram>
  <diagram name="Salary Earnings Journey" id="nIT63fU4RnHW_Dkq8On-">
    <mxGraphModel dx="989" dy="615" grid="1" gridSize="10" guides="1" tooltips="1" connect="1" arrows="1" fold="1" page="1" pageScale="1" pageWidth="850" pageHeight="1100" math="0" shadow="0">
      <root>
        <mxCell id="07UDXG1_nhBLBx6ToUz8-0" />
        <mxCell id="07UDXG1_nhBLBx6ToUz8-1" parent="07UDXG1_nhBLBx6ToUz8-0" />
        <mxCell id="07UDXG1_nhBLBx6ToUz8-2" style="rounded=0;orthogonalLoop=1;jettySize=auto;html=1;entryX=0;entryY=0.5;entryDx=0;entryDy=0;" edge="1" parent="07UDXG1_nhBLBx6ToUz8-1" source="07UDXG1_nhBLBx6ToUz8-3" target="07UDXG1_nhBLBx6ToUz8-5">
          <mxGeometry relative="1" as="geometry" />
        </mxCell>
        <mxCell id="07UDXG1_nhBLBx6ToUz8-3" value="Job Profile Screen" style="rounded=0;whiteSpace=wrap;html=1;" vertex="1" parent="07UDXG1_nhBLBx6ToUz8-1">
          <mxGeometry x="40" y="120" width="120" height="60" as="geometry" />
        </mxCell>
        <mxCell id="07UDXG1_nhBLBx6ToUz8-4" style="rounded=0;orthogonalLoop=1;jettySize=auto;html=1;entryX=0;entryY=0.5;entryDx=0;entryDy=0;" edge="1" parent="07UDXG1_nhBLBx6ToUz8-1" source="07UDXG1_nhBLBx6ToUz8-5" target="07UDXG1_nhBLBx6ToUz8-9">
          <mxGeometry relative="1" as="geometry" />
        </mxCell>
        <mxCell id="07UDXG1_nhBLBx6ToUz8-5" value="Earnings" style="rhombus;whiteSpace=wrap;html=1;" vertex="1" parent="07UDXG1_nhBLBx6ToUz8-1">
          <mxGeometry x="200" y="110" width="80" height="80" as="geometry" />
        </mxCell>
        <mxCell id="07UDXG1_nhBLBx6ToUz8-7" style="rounded=0;orthogonalLoop=1;jettySize=auto;html=1;entryX=1;entryY=0.5;entryDx=0;entryDy=0;" edge="1" parent="07UDXG1_nhBLBx6ToUz8-1" source="07UDXG1_nhBLBx6ToUz8-9" target="07UDXG1_nhBLBx6ToUz8-18">
          <mxGeometry relative="1" as="geometry" />
        </mxCell>
        <mxCell id="AX8Wb9ZH93PQvgioPW41-5" style="rounded=0;orthogonalLoop=1;jettySize=auto;html=1;entryX=0;entryY=0.5;entryDx=0;entryDy=0;" edge="1" parent="07UDXG1_nhBLBx6ToUz8-1" source="07UDXG1_nhBLBx6ToUz8-9" target="AX8Wb9ZH93PQvgioPW41-4">
          <mxGeometry relative="1" as="geometry" />
        </mxCell>
        <mxCell id="AX8Wb9ZH93PQvgioPW41-18" style="rounded=0;orthogonalLoop=1;jettySize=auto;html=1;entryX=0.5;entryY=0;entryDx=0;entryDy=0;" edge="1" parent="07UDXG1_nhBLBx6ToUz8-1" source="07UDXG1_nhBLBx6ToUz8-9" target="AX8Wb9ZH93PQvgioPW41-17">
          <mxGeometry relative="1" as="geometry" />
        </mxCell>
        <mxCell id="EE4fFkF2ZqBIs66JQTwz-4" style="edgeStyle=none;rounded=0;orthogonalLoop=1;jettySize=auto;html=1;entryX=0.5;entryY=0;entryDx=0;entryDy=0;" edge="1" parent="07UDXG1_nhBLBx6ToUz8-1" source="07UDXG1_nhBLBx6ToUz8-9" target="AX8Wb9ZH93PQvgioPW41-6">
          <mxGeometry relative="1" as="geometry" />
        </mxCell>
        <mxCell id="07UDXG1_nhBLBx6ToUz8-9" value="Salary Earnings Screen" style="rounded=0;whiteSpace=wrap;html=1;" vertex="1" parent="07UDXG1_nhBLBx6ToUz8-1">
          <mxGeometry x="320" y="120" width="120" height="60" as="geometry" />
        </mxCell>
        <mxCell id="07UDXG1_nhBLBx6ToUz8-17" style="rounded=0;orthogonalLoop=1;jettySize=auto;html=1;entryX=0.5;entryY=1;entryDx=0;entryDy=0;" edge="1" parent="07UDXG1_nhBLBx6ToUz8-1" source="07UDXG1_nhBLBx6ToUz8-18" target="07UDXG1_nhBLBx6ToUz8-3">
          <mxGeometry relative="1" as="geometry" />
        </mxCell>
        <mxCell id="07UDXG1_nhBLBx6ToUz8-18" value="Cancel" style="rhombus;whiteSpace=wrap;html=1;" vertex="1" parent="07UDXG1_nhBLBx6ToUz8-1">
          <mxGeometry x="200" y="210" width="80" height="80" as="geometry" />
        </mxCell>
        <mxCell id="AX8Wb9ZH93PQvgioPW41-4" value="Update Rate" style="rhombus;whiteSpace=wrap;html=1;" vertex="1" parent="07UDXG1_nhBLBx6ToUz8-1">
          <mxGeometry x="500" y="170" width="80" height="80" as="geometry" />
        </mxCell>
        <mxCell id="AX8Wb9ZH93PQvgioPW41-9" style="rounded=0;orthogonalLoop=1;jettySize=auto;html=1;entryX=1;entryY=0.5;entryDx=0;entryDy=0;" edge="1" parent="07UDXG1_nhBLBx6ToUz8-1" source="AX8Wb9ZH93PQvgioPW41-6" target="AX8Wb9ZH93PQvgioPW41-8">
          <mxGeometry relative="1" as="geometry" />
        </mxCell>
        <mxCell id="AX8Wb9ZH93PQvgioPW41-6" value="Update" style="rhombus;whiteSpace=wrap;html=1;" vertex="1" parent="07UDXG1_nhBLBx6ToUz8-1">
          <mxGeometry x="340" y="270" width="80" height="80" as="geometry" />
        </mxCell>
        <mxCell id="AX8Wb9ZH93PQvgioPW41-8" value="Job Profile Salary Rate Updated" style="rounded=0;whiteSpace=wrap;html=1;" vertex="1" parent="07UDXG1_nhBLBx6ToUz8-1">
          <mxGeometry x="260" y="370" width="120" height="60" as="geometry" />
        </mxCell>
        <mxCell id="EE4fFkF2ZqBIs66JQTwz-2" style="edgeStyle=none;rounded=0;orthogonalLoop=1;jettySize=auto;html=1;exitX=0.465;exitY=0.084;exitDx=0;exitDy=0;entryX=0.75;entryY=1;entryDx=0;entryDy=0;exitPerimeter=0;" edge="1" parent="07UDXG1_nhBLBx6ToUz8-1" source="AX8Wb9ZH93PQvgioPW41-17" target="07UDXG1_nhBLBx6ToUz8-9">
          <mxGeometry relative="1" as="geometry" />
        </mxCell>
        <mxCell id="AX8Wb9ZH93PQvgioPW41-17" value="Update Frequency" style="rhombus;whiteSpace=wrap;html=1;" vertex="1" parent="07UDXG1_nhBLBx6ToUz8-1">
          <mxGeometry x="440" y="230" width="80" height="80" as="geometry" />
        </mxCell>
        <mxCell id="EE4fFkF2ZqBIs66JQTwz-1" style="edgeStyle=none;rounded=0;orthogonalLoop=1;jettySize=auto;html=1;exitX=0.086;exitY=0.463;exitDx=0;exitDy=0;entryX=0.988;entryY=0.865;entryDx=0;entryDy=0;entryPerimeter=0;exitPerimeter=0;" edge="1" parent="07UDXG1_nhBLBx6ToUz8-1" source="AX8Wb9ZH93PQvgioPW41-4" target="07UDXG1_nhBLBx6ToUz8-9">
          <mxGeometry relative="1" as="geometry" />
        </mxCell>
        <mxCell id="EE4fFkF2ZqBIs66JQTwz-3" style="edgeStyle=orthogonalEdgeStyle;rounded=0;orthogonalLoop=1;jettySize=auto;html=1;entryX=0.391;entryY=1.014;entryDx=0;entryDy=0;entryPerimeter=0;" edge="1" parent="07UDXG1_nhBLBx6ToUz8-1" source="AX8Wb9ZH93PQvgioPW41-8" target="07UDXG1_nhBLBx6ToUz8-9">
          <mxGeometry relative="1" as="geometry" />
        </mxCell>
      </root>
    </mxGraphModel>
  </diagram>
  <diagram id="Sl980ySHbOp1YFjLVqNF" name="Recurring Fees Add Item Journey">
    <mxGraphModel dx="1195" dy="743" grid="1" gridSize="10" guides="1" tooltips="1" connect="1" arrows="1" fold="1" page="1" pageScale="1" pageWidth="850" pageHeight="1100" math="0" shadow="0">
      <root>
        <mxCell id="0" />
        <mxCell id="1" parent="0" />
        <mxCell id="XLtGJhkCUJY4T73RAX2X-3" style="rounded=0;orthogonalLoop=1;jettySize=auto;html=1;entryX=0;entryY=0.5;entryDx=0;entryDy=0;" edge="1" parent="1" source="XLtGJhkCUJY4T73RAX2X-1" target="XLtGJhkCUJY4T73RAX2X-2">
          <mxGeometry relative="1" as="geometry" />
        </mxCell>
        <mxCell id="XLtGJhkCUJY4T73RAX2X-1" value="Job Profile Screen" style="rounded=0;whiteSpace=wrap;html=1;" vertex="1" parent="1">
          <mxGeometry x="40" y="40" width="120" height="60" as="geometry" />
        </mxCell>
        <mxCell id="qdn0AokqxSgrjmZ4yCu3-1" style="rounded=0;orthogonalLoop=1;jettySize=auto;html=1;entryX=0;entryY=0.5;entryDx=0;entryDy=0;" edge="1" parent="1" source="XLtGJhkCUJY4T73RAX2X-2" target="XLtGJhkCUJY4T73RAX2X-4">
          <mxGeometry relative="1" as="geometry" />
        </mxCell>
        <mxCell id="XLtGJhkCUJY4T73RAX2X-2" value="Recurring&lt;div&gt;Fees&lt;/div&gt;" style="rhombus;whiteSpace=wrap;html=1;" vertex="1" parent="1">
          <mxGeometry x="200" y="30" width="80" height="80" as="geometry" />
        </mxCell>
        <mxCell id="9eLRrRpe3bnkrypUitl7-18" style="edgeStyle=none;rounded=0;orthogonalLoop=1;jettySize=auto;html=1;entryX=0.5;entryY=0;entryDx=0;entryDy=0;" edge="1" parent="1" source="XLtGJhkCUJY4T73RAX2X-4" target="qdn0AokqxSgrjmZ4yCu3-2">
          <mxGeometry relative="1" as="geometry" />
        </mxCell>
        <mxCell id="XLtGJhkCUJY4T73RAX2X-4" value="Recurring Fees Screen" style="rounded=0;whiteSpace=wrap;html=1;" vertex="1" parent="1">
          <mxGeometry x="320" y="40" width="120" height="60" as="geometry" />
        </mxCell>
        <mxCell id="9eLRrRpe3bnkrypUitl7-2" style="edgeStyle=none;rounded=0;orthogonalLoop=1;jettySize=auto;html=1;entryX=0.5;entryY=0;entryDx=0;entryDy=0;" edge="1" parent="1" source="qdn0AokqxSgrjmZ4yCu3-2" target="qdn0AokqxSgrjmZ4yCu3-3">
          <mxGeometry relative="1" as="geometry" />
        </mxCell>
        <mxCell id="qdn0AokqxSgrjmZ4yCu3-2" value="Add Item" style="rhombus;whiteSpace=wrap;html=1;" vertex="1" parent="1">
          <mxGeometry x="340" y="120" width="80" height="80" as="geometry" />
        </mxCell>
        <mxCell id="9eLRrRpe3bnkrypUitl7-4" style="edgeStyle=none;rounded=0;orthogonalLoop=1;jettySize=auto;html=1;entryX=0.5;entryY=0;entryDx=0;entryDy=0;" edge="1" parent="1" source="qdn0AokqxSgrjmZ4yCu3-3" target="9eLRrRpe3bnkrypUitl7-3">
          <mxGeometry relative="1" as="geometry" />
        </mxCell>
        <mxCell id="9eLRrRpe3bnkrypUitl7-6" style="edgeStyle=none;rounded=0;orthogonalLoop=1;jettySize=auto;html=1;entryX=0.5;entryY=0;entryDx=0;entryDy=0;" edge="1" parent="1" source="qdn0AokqxSgrjmZ4yCu3-3" target="9eLRrRpe3bnkrypUitl7-5">
          <mxGeometry relative="1" as="geometry" />
        </mxCell>
        <mxCell id="9eLRrRpe3bnkrypUitl7-8" style="edgeStyle=none;rounded=0;orthogonalLoop=1;jettySize=auto;html=1;entryX=0.5;entryY=0;entryDx=0;entryDy=0;" edge="1" parent="1" source="qdn0AokqxSgrjmZ4yCu3-3" target="9eLRrRpe3bnkrypUitl7-7">
          <mxGeometry relative="1" as="geometry" />
        </mxCell>
        <mxCell id="9eLRrRpe3bnkrypUitl7-11" style="edgeStyle=none;rounded=0;orthogonalLoop=1;jettySize=auto;html=1;entryX=0.5;entryY=0;entryDx=0;entryDy=0;" edge="1" parent="1" source="qdn0AokqxSgrjmZ4yCu3-3" target="9eLRrRpe3bnkrypUitl7-10">
          <mxGeometry relative="1" as="geometry" />
        </mxCell>
        <mxCell id="qdn0AokqxSgrjmZ4yCu3-3" value="Job Profile Screen w/ Add Item Popup" style="rounded=0;whiteSpace=wrap;html=1;" vertex="1" parent="1">
          <mxGeometry x="320" y="230" width="120" height="60" as="geometry" />
        </mxCell>
        <mxCell id="9eLRrRpe3bnkrypUitl7-3" value="Enter Name" style="rhombus;whiteSpace=wrap;html=1;" vertex="1" parent="1">
          <mxGeometry x="500" y="340" width="80" height="80" as="geometry" />
        </mxCell>
        <mxCell id="9eLRrRpe3bnkrypUitl7-5" value="Enter Cost" style="rhombus;whiteSpace=wrap;html=1;" vertex="1" parent="1">
          <mxGeometry x="390" y="340" width="80" height="80" as="geometry" />
        </mxCell>
        <mxCell id="9eLRrRpe3bnkrypUitl7-15" style="edgeStyle=none;rounded=0;orthogonalLoop=1;jettySize=auto;html=1;entryX=0.5;entryY=0;entryDx=0;entryDy=0;" edge="1" parent="1" source="9eLRrRpe3bnkrypUitl7-7" target="9eLRrRpe3bnkrypUitl7-13">
          <mxGeometry relative="1" as="geometry" />
        </mxCell>
        <mxCell id="9eLRrRpe3bnkrypUitl7-7" value="Done" style="rhombus;whiteSpace=wrap;html=1;" vertex="1" parent="1">
          <mxGeometry x="285" y="340" width="80" height="80" as="geometry" />
        </mxCell>
        <mxCell id="9eLRrRpe3bnkrypUitl7-12" style="edgeStyle=orthogonalEdgeStyle;rounded=0;orthogonalLoop=1;jettySize=auto;html=1;exitX=0;exitY=0.5;exitDx=0;exitDy=0;entryX=0.5;entryY=1;entryDx=0;entryDy=0;" edge="1" parent="1" source="9eLRrRpe3bnkrypUitl7-10" target="XLtGJhkCUJY4T73RAX2X-1">
          <mxGeometry relative="1" as="geometry" />
        </mxCell>
        <mxCell id="9eLRrRpe3bnkrypUitl7-10" value="Cancel" style="rhombus;whiteSpace=wrap;html=1;" vertex="1" parent="1">
          <mxGeometry x="180" y="340" width="80" height="80" as="geometry" />
        </mxCell>
        <mxCell id="EKp9uRPLK7Tk1KWZRFbG-1" style="edgeStyle=orthogonalEdgeStyle;rounded=0;orthogonalLoop=1;jettySize=auto;html=1;entryX=0.5;entryY=0;entryDx=0;entryDy=0;" edge="1" parent="1" source="9eLRrRpe3bnkrypUitl7-13" target="XLtGJhkCUJY4T73RAX2X-4">
          <mxGeometry relative="1" as="geometry">
            <Array as="points">
              <mxPoint x="20" y="500" />
              <mxPoint x="20" y="20" />
              <mxPoint x="380" y="20" />
            </Array>
          </mxGeometry>
        </mxCell>
        <mxCell id="9eLRrRpe3bnkrypUitl7-13" value="Item Added to Recurring Fees" style="rounded=0;whiteSpace=wrap;html=1;" vertex="1" parent="1">
          <mxGeometry x="265" y="470" width="120" height="60" as="geometry" />
        </mxCell>
        <mxCell id="9eLRrRpe3bnkrypUitl7-16" style="edgeStyle=none;rounded=0;orthogonalLoop=1;jettySize=auto;html=1;exitX=0.407;exitY=0.081;exitDx=0;exitDy=0;entryX=0.564;entryY=1.025;entryDx=0;entryDy=0;entryPerimeter=0;exitPerimeter=0;" edge="1" parent="1" source="9eLRrRpe3bnkrypUitl7-5" target="qdn0AokqxSgrjmZ4yCu3-3">
          <mxGeometry relative="1" as="geometry" />
        </mxCell>
        <mxCell id="9eLRrRpe3bnkrypUitl7-17" style="edgeStyle=none;rounded=0;orthogonalLoop=1;jettySize=auto;html=1;exitX=0.389;exitY=0.091;exitDx=0;exitDy=0;entryX=0.924;entryY=1.032;entryDx=0;entryDy=0;entryPerimeter=0;exitPerimeter=0;" edge="1" parent="1" source="9eLRrRpe3bnkrypUitl7-3" target="qdn0AokqxSgrjmZ4yCu3-3">
          <mxGeometry relative="1" as="geometry" />
        </mxCell>
      </root>
    </mxGraphModel>
  </diagram>
  <diagram name="Recurring Fees Remove Item Journey" id="csICaPs8FRqOAkLVxG86">
    <mxGraphModel dx="1434" dy="892" grid="1" gridSize="10" guides="1" tooltips="1" connect="1" arrows="1" fold="1" page="1" pageScale="1" pageWidth="850" pageHeight="1100" math="0" shadow="0">
      <root>
        <mxCell id="UZbgTLAxOUCNc8JkHTRV-0" />
        <mxCell id="UZbgTLAxOUCNc8JkHTRV-1" parent="UZbgTLAxOUCNc8JkHTRV-0" />
        <mxCell id="UZbgTLAxOUCNc8JkHTRV-2" style="rounded=0;orthogonalLoop=1;jettySize=auto;html=1;entryX=0;entryY=0.5;entryDx=0;entryDy=0;" edge="1" parent="UZbgTLAxOUCNc8JkHTRV-1" source="UZbgTLAxOUCNc8JkHTRV-3" target="UZbgTLAxOUCNc8JkHTRV-5">
          <mxGeometry relative="1" as="geometry" />
        </mxCell>
        <mxCell id="UZbgTLAxOUCNc8JkHTRV-3" value="Job Profile Screen" style="rounded=0;whiteSpace=wrap;html=1;" vertex="1" parent="UZbgTLAxOUCNc8JkHTRV-1">
          <mxGeometry x="40" y="40" width="120" height="60" as="geometry" />
        </mxCell>
        <mxCell id="UZbgTLAxOUCNc8JkHTRV-4" style="rounded=0;orthogonalLoop=1;jettySize=auto;html=1;entryX=0;entryY=0.5;entryDx=0;entryDy=0;" edge="1" parent="UZbgTLAxOUCNc8JkHTRV-1" source="UZbgTLAxOUCNc8JkHTRV-5" target="UZbgTLAxOUCNc8JkHTRV-7">
          <mxGeometry relative="1" as="geometry" />
        </mxCell>
        <mxCell id="UZbgTLAxOUCNc8JkHTRV-5" value="Recurring&lt;div&gt;Fees&lt;/div&gt;" style="rhombus;whiteSpace=wrap;html=1;" vertex="1" parent="UZbgTLAxOUCNc8JkHTRV-1">
          <mxGeometry x="200" y="30" width="80" height="80" as="geometry" />
        </mxCell>
        <mxCell id="UZbgTLAxOUCNc8JkHTRV-6" style="edgeStyle=none;rounded=0;orthogonalLoop=1;jettySize=auto;html=1;entryX=0.5;entryY=0;entryDx=0;entryDy=0;" edge="1" parent="UZbgTLAxOUCNc8JkHTRV-1" source="UZbgTLAxOUCNc8JkHTRV-7" target="UZbgTLAxOUCNc8JkHTRV-9">
          <mxGeometry relative="1" as="geometry" />
        </mxCell>
        <mxCell id="UZbgTLAxOUCNc8JkHTRV-7" value="Recurring Fees Screen" style="rounded=0;whiteSpace=wrap;html=1;" vertex="1" parent="UZbgTLAxOUCNc8JkHTRV-1">
          <mxGeometry x="320" y="40" width="120" height="60" as="geometry" />
        </mxCell>
        <mxCell id="UZbgTLAxOUCNc8JkHTRV-8" style="edgeStyle=none;rounded=0;orthogonalLoop=1;jettySize=auto;html=1;entryX=0.5;entryY=0;entryDx=0;entryDy=0;" edge="1" parent="UZbgTLAxOUCNc8JkHTRV-1" source="UZbgTLAxOUCNc8JkHTRV-9" target="UZbgTLAxOUCNc8JkHTRV-14">
          <mxGeometry relative="1" as="geometry" />
        </mxCell>
        <mxCell id="UZbgTLAxOUCNc8JkHTRV-9" value="Remove Item" style="rhombus;whiteSpace=wrap;html=1;" vertex="1" parent="UZbgTLAxOUCNc8JkHTRV-1">
          <mxGeometry x="340" y="120" width="80" height="80" as="geometry" />
        </mxCell>
        <mxCell id="UZbgTLAxOUCNc8JkHTRV-12" style="edgeStyle=none;rounded=0;orthogonalLoop=1;jettySize=auto;html=1;entryX=0.5;entryY=0;entryDx=0;entryDy=0;" edge="1" parent="UZbgTLAxOUCNc8JkHTRV-1" source="UZbgTLAxOUCNc8JkHTRV-14" target="UZbgTLAxOUCNc8JkHTRV-18">
          <mxGeometry relative="1" as="geometry" />
        </mxCell>
        <mxCell id="UZbgTLAxOUCNc8JkHTRV-13" style="edgeStyle=none;rounded=0;orthogonalLoop=1;jettySize=auto;html=1;entryX=0.5;entryY=0;entryDx=0;entryDy=0;" edge="1" parent="UZbgTLAxOUCNc8JkHTRV-1" source="UZbgTLAxOUCNc8JkHTRV-14" target="UZbgTLAxOUCNc8JkHTRV-20">
          <mxGeometry relative="1" as="geometry" />
        </mxCell>
        <mxCell id="tVIN_hGAH19Iuc1wbAFo-1" style="edgeStyle=none;rounded=0;orthogonalLoop=1;jettySize=auto;html=1;entryX=0;entryY=0.5;entryDx=0;entryDy=0;" edge="1" parent="UZbgTLAxOUCNc8JkHTRV-1" source="UZbgTLAxOUCNc8JkHTRV-14" target="tVIN_hGAH19Iuc1wbAFo-0">
          <mxGeometry relative="1" as="geometry" />
        </mxCell>
        <mxCell id="UZbgTLAxOUCNc8JkHTRV-14" value="Job Profile Screen w/ Remove Item Popup" style="rounded=0;whiteSpace=wrap;html=1;" vertex="1" parent="UZbgTLAxOUCNc8JkHTRV-1">
          <mxGeometry x="320" y="230" width="120" height="60" as="geometry" />
        </mxCell>
        <mxCell id="UZbgTLAxOUCNc8JkHTRV-17" style="edgeStyle=none;rounded=0;orthogonalLoop=1;jettySize=auto;html=1;entryX=0.5;entryY=0;entryDx=0;entryDy=0;" edge="1" parent="UZbgTLAxOUCNc8JkHTRV-1" source="UZbgTLAxOUCNc8JkHTRV-18" target="UZbgTLAxOUCNc8JkHTRV-22">
          <mxGeometry relative="1" as="geometry" />
        </mxCell>
        <mxCell id="UZbgTLAxOUCNc8JkHTRV-18" value="Done" style="rhombus;whiteSpace=wrap;html=1;" vertex="1" parent="UZbgTLAxOUCNc8JkHTRV-1">
          <mxGeometry x="285" y="340" width="80" height="80" as="geometry" />
        </mxCell>
        <mxCell id="UZbgTLAxOUCNc8JkHTRV-19" style="edgeStyle=orthogonalEdgeStyle;rounded=0;orthogonalLoop=1;jettySize=auto;html=1;exitX=0;exitY=0.5;exitDx=0;exitDy=0;entryX=0.5;entryY=1;entryDx=0;entryDy=0;" edge="1" parent="UZbgTLAxOUCNc8JkHTRV-1" source="UZbgTLAxOUCNc8JkHTRV-20" target="UZbgTLAxOUCNc8JkHTRV-3">
          <mxGeometry relative="1" as="geometry" />
        </mxCell>
        <mxCell id="UZbgTLAxOUCNc8JkHTRV-20" value="Cancel" style="rhombus;whiteSpace=wrap;html=1;" vertex="1" parent="UZbgTLAxOUCNc8JkHTRV-1">
          <mxGeometry x="180" y="340" width="80" height="80" as="geometry" />
        </mxCell>
        <mxCell id="N4Q71SHdNSxT4lncWpLI-0" style="edgeStyle=orthogonalEdgeStyle;rounded=0;orthogonalLoop=1;jettySize=auto;html=1;entryX=0.5;entryY=0;entryDx=0;entryDy=0;" edge="1" parent="UZbgTLAxOUCNc8JkHTRV-1" source="UZbgTLAxOUCNc8JkHTRV-22" target="UZbgTLAxOUCNc8JkHTRV-7">
          <mxGeometry relative="1" as="geometry">
            <Array as="points">
              <mxPoint x="20" y="500" />
              <mxPoint x="20" y="20" />
              <mxPoint x="380" y="20" />
            </Array>
          </mxGeometry>
        </mxCell>
        <mxCell id="UZbgTLAxOUCNc8JkHTRV-22" value="Selected Item Removed from Recurring Fees" style="rounded=0;whiteSpace=wrap;html=1;" vertex="1" parent="UZbgTLAxOUCNc8JkHTRV-1">
          <mxGeometry x="265" y="470" width="120" height="60" as="geometry" />
        </mxCell>
        <mxCell id="tVIN_hGAH19Iuc1wbAFo-3" style="edgeStyle=none;rounded=0;orthogonalLoop=1;jettySize=auto;html=1;" edge="1" parent="UZbgTLAxOUCNc8JkHTRV-1" source="tVIN_hGAH19Iuc1wbAFo-0" target="tVIN_hGAH19Iuc1wbAFo-2">
          <mxGeometry relative="1" as="geometry" />
        </mxCell>
        <mxCell id="tVIN_hGAH19Iuc1wbAFo-0" value="Dropdown Arrow" style="rhombus;whiteSpace=wrap;html=1;" vertex="1" parent="UZbgTLAxOUCNc8JkHTRV-1">
          <mxGeometry x="520" y="220" width="80" height="80" as="geometry" />
        </mxCell>
        <mxCell id="tVIN_hGAH19Iuc1wbAFo-5" style="edgeStyle=none;rounded=0;orthogonalLoop=1;jettySize=auto;html=1;entryX=0.5;entryY=0;entryDx=0;entryDy=0;" edge="1" parent="UZbgTLAxOUCNc8JkHTRV-1" source="tVIN_hGAH19Iuc1wbAFo-2" target="tVIN_hGAH19Iuc1wbAFo-4">
          <mxGeometry relative="1" as="geometry" />
        </mxCell>
        <mxCell id="tVIN_hGAH19Iuc1wbAFo-2" value="Dropdown Menu Appears" style="rounded=0;whiteSpace=wrap;html=1;" vertex="1" parent="UZbgTLAxOUCNc8JkHTRV-1">
          <mxGeometry x="500" y="350" width="120" height="60" as="geometry" />
        </mxCell>
        <mxCell id="tVIN_hGAH19Iuc1wbAFo-7" style="edgeStyle=none;rounded=0;orthogonalLoop=1;jettySize=auto;html=1;entryX=0.5;entryY=0;entryDx=0;entryDy=0;" edge="1" parent="UZbgTLAxOUCNc8JkHTRV-1" source="tVIN_hGAH19Iuc1wbAFo-4" target="tVIN_hGAH19Iuc1wbAFo-6">
          <mxGeometry relative="1" as="geometry" />
        </mxCell>
        <mxCell id="tVIN_hGAH19Iuc1wbAFo-4" value="Select Item" style="rhombus;whiteSpace=wrap;html=1;" vertex="1" parent="UZbgTLAxOUCNc8JkHTRV-1">
          <mxGeometry x="520" y="460" width="80" height="80" as="geometry" />
        </mxCell>
        <mxCell id="tVIN_hGAH19Iuc1wbAFo-6" value="Selected Item Updates" style="rounded=0;whiteSpace=wrap;html=1;" vertex="1" parent="UZbgTLAxOUCNc8JkHTRV-1">
          <mxGeometry x="500" y="590" width="120" height="60" as="geometry" />
        </mxCell>
        <mxCell id="tVIN_hGAH19Iuc1wbAFo-8" style="edgeStyle=orthogonalEdgeStyle;rounded=0;orthogonalLoop=1;jettySize=auto;html=1;entryX=0.75;entryY=1;entryDx=0;entryDy=0;" edge="1" parent="UZbgTLAxOUCNc8JkHTRV-1" source="tVIN_hGAH19Iuc1wbAFo-6" target="UZbgTLAxOUCNc8JkHTRV-14">
          <mxGeometry relative="1" as="geometry">
            <Array as="points">
              <mxPoint x="410" y="620" />
            </Array>
          </mxGeometry>
        </mxCell>
      </root>
    </mxGraphModel>
  </diagram>
  <diagram name="Spending Add Item Journey" id="7AFDMQ6Ji82bT7qPt7Nu">
    <mxGraphModel dx="1434" dy="892" grid="1" gridSize="10" guides="1" tooltips="1" connect="1" arrows="1" fold="1" page="1" pageScale="1" pageWidth="850" pageHeight="1100" math="0" shadow="0">
      <root>
        <mxCell id="A0A1uvNQQl6zbvL8tgmk-0" />
        <mxCell id="A0A1uvNQQl6zbvL8tgmk-1" parent="A0A1uvNQQl6zbvL8tgmk-0" />
        <mxCell id="A0A1uvNQQl6zbvL8tgmk-2" style="rounded=0;orthogonalLoop=1;jettySize=auto;html=1;entryX=0;entryY=0.5;entryDx=0;entryDy=0;" edge="1" parent="A0A1uvNQQl6zbvL8tgmk-1" source="A0A1uvNQQl6zbvL8tgmk-3" target="A0A1uvNQQl6zbvL8tgmk-5">
          <mxGeometry relative="1" as="geometry" />
        </mxCell>
        <mxCell id="A0A1uvNQQl6zbvL8tgmk-3" value="Job Profile Screen" style="rounded=0;whiteSpace=wrap;html=1;" vertex="1" parent="A0A1uvNQQl6zbvL8tgmk-1">
          <mxGeometry x="40" y="40" width="120" height="60" as="geometry" />
        </mxCell>
        <mxCell id="A0A1uvNQQl6zbvL8tgmk-4" style="rounded=0;orthogonalLoop=1;jettySize=auto;html=1;entryX=0;entryY=0.5;entryDx=0;entryDy=0;" edge="1" parent="A0A1uvNQQl6zbvL8tgmk-1" source="A0A1uvNQQl6zbvL8tgmk-5" target="A0A1uvNQQl6zbvL8tgmk-7">
          <mxGeometry relative="1" as="geometry" />
        </mxCell>
        <mxCell id="A0A1uvNQQl6zbvL8tgmk-5" value="Spending" style="rhombus;whiteSpace=wrap;html=1;" vertex="1" parent="A0A1uvNQQl6zbvL8tgmk-1">
          <mxGeometry x="200" y="30" width="80" height="80" as="geometry" />
        </mxCell>
        <mxCell id="A0A1uvNQQl6zbvL8tgmk-6" style="edgeStyle=none;rounded=0;orthogonalLoop=1;jettySize=auto;html=1;entryX=0.5;entryY=0;entryDx=0;entryDy=0;" edge="1" parent="A0A1uvNQQl6zbvL8tgmk-1" source="A0A1uvNQQl6zbvL8tgmk-7" target="A0A1uvNQQl6zbvL8tgmk-9">
          <mxGeometry relative="1" as="geometry" />
        </mxCell>
        <mxCell id="A0A1uvNQQl6zbvL8tgmk-7" value="Spending Screen" style="rounded=0;whiteSpace=wrap;html=1;" vertex="1" parent="A0A1uvNQQl6zbvL8tgmk-1">
          <mxGeometry x="320" y="40" width="120" height="60" as="geometry" />
        </mxCell>
        <mxCell id="A0A1uvNQQl6zbvL8tgmk-8" style="edgeStyle=none;rounded=0;orthogonalLoop=1;jettySize=auto;html=1;entryX=0.5;entryY=0;entryDx=0;entryDy=0;" edge="1" parent="A0A1uvNQQl6zbvL8tgmk-1" source="A0A1uvNQQl6zbvL8tgmk-9" target="A0A1uvNQQl6zbvL8tgmk-14">
          <mxGeometry relative="1" as="geometry" />
        </mxCell>
        <mxCell id="A0A1uvNQQl6zbvL8tgmk-9" value="Add Item" style="rhombus;whiteSpace=wrap;html=1;" vertex="1" parent="A0A1uvNQQl6zbvL8tgmk-1">
          <mxGeometry x="340" y="120" width="80" height="80" as="geometry" />
        </mxCell>
        <mxCell id="A0A1uvNQQl6zbvL8tgmk-10" style="edgeStyle=none;rounded=0;orthogonalLoop=1;jettySize=auto;html=1;entryX=0.5;entryY=0;entryDx=0;entryDy=0;" edge="1" parent="A0A1uvNQQl6zbvL8tgmk-1" source="A0A1uvNQQl6zbvL8tgmk-14" target="A0A1uvNQQl6zbvL8tgmk-15">
          <mxGeometry relative="1" as="geometry" />
        </mxCell>
        <mxCell id="A0A1uvNQQl6zbvL8tgmk-11" style="edgeStyle=none;rounded=0;orthogonalLoop=1;jettySize=auto;html=1;entryX=0.5;entryY=0;entryDx=0;entryDy=0;" edge="1" parent="A0A1uvNQQl6zbvL8tgmk-1" source="A0A1uvNQQl6zbvL8tgmk-14" target="A0A1uvNQQl6zbvL8tgmk-16">
          <mxGeometry relative="1" as="geometry" />
        </mxCell>
        <mxCell id="A0A1uvNQQl6zbvL8tgmk-12" style="edgeStyle=none;rounded=0;orthogonalLoop=1;jettySize=auto;html=1;entryX=0.5;entryY=0;entryDx=0;entryDy=0;" edge="1" parent="A0A1uvNQQl6zbvL8tgmk-1" source="A0A1uvNQQl6zbvL8tgmk-14" target="A0A1uvNQQl6zbvL8tgmk-18">
          <mxGeometry relative="1" as="geometry" />
        </mxCell>
        <mxCell id="A0A1uvNQQl6zbvL8tgmk-13" style="edgeStyle=none;rounded=0;orthogonalLoop=1;jettySize=auto;html=1;entryX=1;entryY=0.5;entryDx=0;entryDy=0;" edge="1" parent="A0A1uvNQQl6zbvL8tgmk-1" source="A0A1uvNQQl6zbvL8tgmk-14" target="A0A1uvNQQl6zbvL8tgmk-20">
          <mxGeometry relative="1" as="geometry" />
        </mxCell>
        <mxCell id="A0A1uvNQQl6zbvL8tgmk-14" value="Spending Screen w/ Add Item Popup" style="rounded=0;whiteSpace=wrap;html=1;" vertex="1" parent="A0A1uvNQQl6zbvL8tgmk-1">
          <mxGeometry x="320" y="230" width="120" height="60" as="geometry" />
        </mxCell>
        <mxCell id="A0A1uvNQQl6zbvL8tgmk-15" value="Enter Name" style="rhombus;whiteSpace=wrap;html=1;" vertex="1" parent="A0A1uvNQQl6zbvL8tgmk-1">
          <mxGeometry x="500" y="340" width="80" height="80" as="geometry" />
        </mxCell>
        <mxCell id="A0A1uvNQQl6zbvL8tgmk-16" value="Enter Cost" style="rhombus;whiteSpace=wrap;html=1;" vertex="1" parent="A0A1uvNQQl6zbvL8tgmk-1">
          <mxGeometry x="390" y="340" width="80" height="80" as="geometry" />
        </mxCell>
        <mxCell id="A0A1uvNQQl6zbvL8tgmk-17" style="edgeStyle=none;rounded=0;orthogonalLoop=1;jettySize=auto;html=1;entryX=0.5;entryY=0;entryDx=0;entryDy=0;" edge="1" parent="A0A1uvNQQl6zbvL8tgmk-1" source="A0A1uvNQQl6zbvL8tgmk-18" target="A0A1uvNQQl6zbvL8tgmk-22">
          <mxGeometry relative="1" as="geometry" />
        </mxCell>
        <mxCell id="A0A1uvNQQl6zbvL8tgmk-18" value="Done" style="rhombus;whiteSpace=wrap;html=1;" vertex="1" parent="A0A1uvNQQl6zbvL8tgmk-1">
          <mxGeometry x="285" y="340" width="80" height="80" as="geometry" />
        </mxCell>
        <mxCell id="gi-TcXx0jfabAZycn3ji-1" style="edgeStyle=none;rounded=0;orthogonalLoop=1;jettySize=auto;html=1;entryX=0;entryY=1;entryDx=0;entryDy=0;" edge="1" parent="A0A1uvNQQl6zbvL8tgmk-1" source="A0A1uvNQQl6zbvL8tgmk-20" target="A0A1uvNQQl6zbvL8tgmk-7">
          <mxGeometry relative="1" as="geometry" />
        </mxCell>
        <mxCell id="A0A1uvNQQl6zbvL8tgmk-20" value="Cancel" style="rhombus;whiteSpace=wrap;html=1;" vertex="1" parent="A0A1uvNQQl6zbvL8tgmk-1">
          <mxGeometry x="180" y="340" width="80" height="80" as="geometry" />
        </mxCell>
        <mxCell id="xoJVpCue4Bv2tbWI7Dmi-0" style="edgeStyle=orthogonalEdgeStyle;rounded=0;orthogonalLoop=1;jettySize=auto;html=1;entryX=1;entryY=0.5;entryDx=0;entryDy=0;" edge="1" parent="A0A1uvNQQl6zbvL8tgmk-1" source="A0A1uvNQQl6zbvL8tgmk-22" target="A0A1uvNQQl6zbvL8tgmk-7">
          <mxGeometry relative="1" as="geometry">
            <Array as="points">
              <mxPoint x="600" y="500" />
              <mxPoint x="600" y="70" />
            </Array>
          </mxGeometry>
        </mxCell>
        <mxCell id="A0A1uvNQQl6zbvL8tgmk-22" value="Item Added to Category" style="rounded=0;whiteSpace=wrap;html=1;" vertex="1" parent="A0A1uvNQQl6zbvL8tgmk-1">
          <mxGeometry x="265" y="470" width="120" height="60" as="geometry" />
        </mxCell>
        <mxCell id="A0A1uvNQQl6zbvL8tgmk-23" style="edgeStyle=none;rounded=0;orthogonalLoop=1;jettySize=auto;html=1;exitX=0.407;exitY=0.081;exitDx=0;exitDy=0;entryX=0.564;entryY=1.025;entryDx=0;entryDy=0;entryPerimeter=0;exitPerimeter=0;" edge="1" parent="A0A1uvNQQl6zbvL8tgmk-1" source="A0A1uvNQQl6zbvL8tgmk-16" target="A0A1uvNQQl6zbvL8tgmk-14">
          <mxGeometry relative="1" as="geometry" />
        </mxCell>
        <mxCell id="A0A1uvNQQl6zbvL8tgmk-24" style="edgeStyle=none;rounded=0;orthogonalLoop=1;jettySize=auto;html=1;exitX=0.389;exitY=0.091;exitDx=0;exitDy=0;entryX=0.924;entryY=1.032;entryDx=0;entryDy=0;entryPerimeter=0;exitPerimeter=0;" edge="1" parent="A0A1uvNQQl6zbvL8tgmk-1" source="A0A1uvNQQl6zbvL8tgmk-15" target="A0A1uvNQQl6zbvL8tgmk-14">
          <mxGeometry relative="1" as="geometry" />
        </mxCell>
      </root>
    </mxGraphModel>
  </diagram>
  <diagram name="Spending Remove Item Journey" id="4EPahbHf8sejdq63vExl">
    <mxGraphModel dx="1434" dy="892" grid="1" gridSize="10" guides="1" tooltips="1" connect="1" arrows="1" fold="1" page="1" pageScale="1" pageWidth="850" pageHeight="1100" math="0" shadow="0">
      <root>
        <mxCell id="fOChPHoaQPS6OVEhyIiH-0" />
        <mxCell id="fOChPHoaQPS6OVEhyIiH-1" parent="fOChPHoaQPS6OVEhyIiH-0" />
        <mxCell id="fOChPHoaQPS6OVEhyIiH-2" style="rounded=0;orthogonalLoop=1;jettySize=auto;html=1;entryX=0;entryY=0.5;entryDx=0;entryDy=0;" edge="1" parent="fOChPHoaQPS6OVEhyIiH-1" source="fOChPHoaQPS6OVEhyIiH-3" target="fOChPHoaQPS6OVEhyIiH-5">
          <mxGeometry relative="1" as="geometry" />
        </mxCell>
        <mxCell id="fOChPHoaQPS6OVEhyIiH-3" value="Job Profile Screen" style="rounded=0;whiteSpace=wrap;html=1;" vertex="1" parent="fOChPHoaQPS6OVEhyIiH-1">
          <mxGeometry x="40" y="40" width="120" height="60" as="geometry" />
        </mxCell>
        <mxCell id="fOChPHoaQPS6OVEhyIiH-4" style="rounded=0;orthogonalLoop=1;jettySize=auto;html=1;entryX=0;entryY=0.5;entryDx=0;entryDy=0;" edge="1" parent="fOChPHoaQPS6OVEhyIiH-1" source="fOChPHoaQPS6OVEhyIiH-5" target="fOChPHoaQPS6OVEhyIiH-7">
          <mxGeometry relative="1" as="geometry" />
        </mxCell>
        <mxCell id="fOChPHoaQPS6OVEhyIiH-5" value="Spending" style="rhombus;whiteSpace=wrap;html=1;" vertex="1" parent="fOChPHoaQPS6OVEhyIiH-1">
          <mxGeometry x="200" y="30" width="80" height="80" as="geometry" />
        </mxCell>
        <mxCell id="fOChPHoaQPS6OVEhyIiH-6" style="edgeStyle=none;rounded=0;orthogonalLoop=1;jettySize=auto;html=1;entryX=0.5;entryY=0;entryDx=0;entryDy=0;" edge="1" parent="fOChPHoaQPS6OVEhyIiH-1" source="fOChPHoaQPS6OVEhyIiH-7" target="fOChPHoaQPS6OVEhyIiH-9">
          <mxGeometry relative="1" as="geometry" />
        </mxCell>
        <mxCell id="fOChPHoaQPS6OVEhyIiH-7" value="Spending Screen" style="rounded=0;whiteSpace=wrap;html=1;" vertex="1" parent="fOChPHoaQPS6OVEhyIiH-1">
          <mxGeometry x="320" y="40" width="120" height="60" as="geometry" />
        </mxCell>
        <mxCell id="fOChPHoaQPS6OVEhyIiH-8" style="edgeStyle=none;rounded=0;orthogonalLoop=1;jettySize=auto;html=1;entryX=0.5;entryY=0;entryDx=0;entryDy=0;" edge="1" parent="fOChPHoaQPS6OVEhyIiH-1" source="fOChPHoaQPS6OVEhyIiH-9" target="fOChPHoaQPS6OVEhyIiH-13">
          <mxGeometry relative="1" as="geometry" />
        </mxCell>
        <mxCell id="fOChPHoaQPS6OVEhyIiH-9" value="Remove Item" style="rhombus;whiteSpace=wrap;html=1;" vertex="1" parent="fOChPHoaQPS6OVEhyIiH-1">
          <mxGeometry x="340" y="120" width="80" height="80" as="geometry" />
        </mxCell>
        <mxCell id="fOChPHoaQPS6OVEhyIiH-10" style="edgeStyle=none;rounded=0;orthogonalLoop=1;jettySize=auto;html=1;entryX=0.5;entryY=0;entryDx=0;entryDy=0;" edge="1" parent="fOChPHoaQPS6OVEhyIiH-1" source="fOChPHoaQPS6OVEhyIiH-13" target="fOChPHoaQPS6OVEhyIiH-15">
          <mxGeometry relative="1" as="geometry" />
        </mxCell>
        <mxCell id="fOChPHoaQPS6OVEhyIiH-11" style="edgeStyle=none;rounded=0;orthogonalLoop=1;jettySize=auto;html=1;entryX=1;entryY=0.5;entryDx=0;entryDy=0;" edge="1" parent="fOChPHoaQPS6OVEhyIiH-1" source="fOChPHoaQPS6OVEhyIiH-13" target="fOChPHoaQPS6OVEhyIiH-17">
          <mxGeometry relative="1" as="geometry" />
        </mxCell>
        <mxCell id="fOChPHoaQPS6OVEhyIiH-12" style="edgeStyle=none;rounded=0;orthogonalLoop=1;jettySize=auto;html=1;entryX=0;entryY=0.5;entryDx=0;entryDy=0;" edge="1" parent="fOChPHoaQPS6OVEhyIiH-1" source="fOChPHoaQPS6OVEhyIiH-13" target="fOChPHoaQPS6OVEhyIiH-21">
          <mxGeometry relative="1" as="geometry" />
        </mxCell>
        <mxCell id="fOChPHoaQPS6OVEhyIiH-13" value="Spending Screen w/ Remove Item Popup" style="rounded=0;whiteSpace=wrap;html=1;" vertex="1" parent="fOChPHoaQPS6OVEhyIiH-1">
          <mxGeometry x="320" y="230" width="120" height="60" as="geometry" />
        </mxCell>
        <mxCell id="fOChPHoaQPS6OVEhyIiH-14" style="edgeStyle=none;rounded=0;orthogonalLoop=1;jettySize=auto;html=1;entryX=0.5;entryY=0;entryDx=0;entryDy=0;" edge="1" parent="fOChPHoaQPS6OVEhyIiH-1" source="fOChPHoaQPS6OVEhyIiH-15" target="fOChPHoaQPS6OVEhyIiH-19">
          <mxGeometry relative="1" as="geometry" />
        </mxCell>
        <mxCell id="fOChPHoaQPS6OVEhyIiH-15" value="Done" style="rhombus;whiteSpace=wrap;html=1;" vertex="1" parent="fOChPHoaQPS6OVEhyIiH-1">
          <mxGeometry x="285" y="340" width="80" height="80" as="geometry" />
        </mxCell>
        <mxCell id="fOChPHoaQPS6OVEhyIiH-16" style="rounded=0;orthogonalLoop=1;jettySize=auto;html=1;exitX=0.5;exitY=0;exitDx=0;exitDy=0;entryX=0;entryY=1;entryDx=0;entryDy=0;" edge="1" parent="fOChPHoaQPS6OVEhyIiH-1" source="fOChPHoaQPS6OVEhyIiH-17" target="fOChPHoaQPS6OVEhyIiH-7">
          <mxGeometry relative="1" as="geometry" />
        </mxCell>
        <mxCell id="fOChPHoaQPS6OVEhyIiH-17" value="Cancel" style="rhombus;whiteSpace=wrap;html=1;" vertex="1" parent="fOChPHoaQPS6OVEhyIiH-1">
          <mxGeometry x="180" y="340" width="80" height="80" as="geometry" />
        </mxCell>
        <mxCell id="fOChPHoaQPS6OVEhyIiH-18" style="edgeStyle=orthogonalEdgeStyle;rounded=0;orthogonalLoop=1;jettySize=auto;html=1;entryX=0.5;entryY=0;entryDx=0;entryDy=0;" edge="1" parent="fOChPHoaQPS6OVEhyIiH-1" source="fOChPHoaQPS6OVEhyIiH-19" target="fOChPHoaQPS6OVEhyIiH-7">
          <mxGeometry relative="1" as="geometry">
            <Array as="points">
              <mxPoint x="20" y="500" />
              <mxPoint x="20" y="20" />
              <mxPoint x="380" y="20" />
            </Array>
          </mxGeometry>
        </mxCell>
        <mxCell id="fOChPHoaQPS6OVEhyIiH-19" value="Selected Item Removed from Category" style="rounded=0;whiteSpace=wrap;html=1;" vertex="1" parent="fOChPHoaQPS6OVEhyIiH-1">
          <mxGeometry x="265" y="470" width="120" height="60" as="geometry" />
        </mxCell>
        <mxCell id="fOChPHoaQPS6OVEhyIiH-20" style="edgeStyle=none;rounded=0;orthogonalLoop=1;jettySize=auto;html=1;" edge="1" parent="fOChPHoaQPS6OVEhyIiH-1" source="fOChPHoaQPS6OVEhyIiH-21" target="fOChPHoaQPS6OVEhyIiH-23">
          <mxGeometry relative="1" as="geometry" />
        </mxCell>
        <mxCell id="fOChPHoaQPS6OVEhyIiH-21" value="Dropdown Arrow" style="rhombus;whiteSpace=wrap;html=1;" vertex="1" parent="fOChPHoaQPS6OVEhyIiH-1">
          <mxGeometry x="520" y="220" width="80" height="80" as="geometry" />
        </mxCell>
        <mxCell id="fOChPHoaQPS6OVEhyIiH-22" style="edgeStyle=none;rounded=0;orthogonalLoop=1;jettySize=auto;html=1;entryX=0.5;entryY=0;entryDx=0;entryDy=0;" edge="1" parent="fOChPHoaQPS6OVEhyIiH-1" source="fOChPHoaQPS6OVEhyIiH-23" target="fOChPHoaQPS6OVEhyIiH-25">
          <mxGeometry relative="1" as="geometry" />
        </mxCell>
        <mxCell id="fOChPHoaQPS6OVEhyIiH-23" value="Dropdown Menu Appears" style="rounded=0;whiteSpace=wrap;html=1;" vertex="1" parent="fOChPHoaQPS6OVEhyIiH-1">
          <mxGeometry x="500" y="350" width="120" height="60" as="geometry" />
        </mxCell>
        <mxCell id="fOChPHoaQPS6OVEhyIiH-24" style="edgeStyle=none;rounded=0;orthogonalLoop=1;jettySize=auto;html=1;entryX=0.5;entryY=0;entryDx=0;entryDy=0;" edge="1" parent="fOChPHoaQPS6OVEhyIiH-1" source="fOChPHoaQPS6OVEhyIiH-25" target="fOChPHoaQPS6OVEhyIiH-26">
          <mxGeometry relative="1" as="geometry" />
        </mxCell>
        <mxCell id="fOChPHoaQPS6OVEhyIiH-25" value="Select Item" style="rhombus;whiteSpace=wrap;html=1;" vertex="1" parent="fOChPHoaQPS6OVEhyIiH-1">
          <mxGeometry x="520" y="460" width="80" height="80" as="geometry" />
        </mxCell>
        <mxCell id="fOChPHoaQPS6OVEhyIiH-26" value="Selected Item Updates" style="rounded=0;whiteSpace=wrap;html=1;" vertex="1" parent="fOChPHoaQPS6OVEhyIiH-1">
          <mxGeometry x="500" y="590" width="120" height="60" as="geometry" />
        </mxCell>
        <mxCell id="fOChPHoaQPS6OVEhyIiH-27" style="edgeStyle=orthogonalEdgeStyle;rounded=0;orthogonalLoop=1;jettySize=auto;html=1;entryX=0.75;entryY=1;entryDx=0;entryDy=0;" edge="1" parent="fOChPHoaQPS6OVEhyIiH-1" source="fOChPHoaQPS6OVEhyIiH-26" target="fOChPHoaQPS6OVEhyIiH-13">
          <mxGeometry relative="1" as="geometry">
            <Array as="points">
              <mxPoint x="410" y="620" />
            </Array>
          </mxGeometry>
        </mxCell>
      </root>
    </mxGraphModel>
  </diagram>
  <diagram name="Spending Change Category Journey" id="kV6lDhSF4PPWZMaWT4RB">
    <mxGraphModel dx="1434" dy="892" grid="1" gridSize="10" guides="1" tooltips="1" connect="1" arrows="1" fold="1" page="1" pageScale="1" pageWidth="850" pageHeight="1100" math="0" shadow="0">
      <root>
        <mxCell id="0P9crNBqe6AhgqF-sUGG-0" />
        <mxCell id="0P9crNBqe6AhgqF-sUGG-1" parent="0P9crNBqe6AhgqF-sUGG-0" />
        <mxCell id="0P9crNBqe6AhgqF-sUGG-2" style="rounded=0;orthogonalLoop=1;jettySize=auto;html=1;entryX=0;entryY=0.5;entryDx=0;entryDy=0;" edge="1" parent="0P9crNBqe6AhgqF-sUGG-1" source="0P9crNBqe6AhgqF-sUGG-3" target="0P9crNBqe6AhgqF-sUGG-5">
          <mxGeometry relative="1" as="geometry" />
        </mxCell>
        <mxCell id="0P9crNBqe6AhgqF-sUGG-3" value="Job Profile Screen" style="rounded=0;whiteSpace=wrap;html=1;" vertex="1" parent="0P9crNBqe6AhgqF-sUGG-1">
          <mxGeometry x="40" y="40" width="120" height="60" as="geometry" />
        </mxCell>
        <mxCell id="0P9crNBqe6AhgqF-sUGG-4" style="rounded=0;orthogonalLoop=1;jettySize=auto;html=1;entryX=0;entryY=0.5;entryDx=0;entryDy=0;" edge="1" parent="0P9crNBqe6AhgqF-sUGG-1" source="0P9crNBqe6AhgqF-sUGG-5" target="0P9crNBqe6AhgqF-sUGG-7">
          <mxGeometry relative="1" as="geometry" />
        </mxCell>
        <mxCell id="0P9crNBqe6AhgqF-sUGG-5" value="Spending" style="rhombus;whiteSpace=wrap;html=1;" vertex="1" parent="0P9crNBqe6AhgqF-sUGG-1">
          <mxGeometry x="200" y="30" width="80" height="80" as="geometry" />
        </mxCell>
        <mxCell id="0P9crNBqe6AhgqF-sUGG-6" style="edgeStyle=none;rounded=0;orthogonalLoop=1;jettySize=auto;html=1;entryX=0.5;entryY=0;entryDx=0;entryDy=0;" edge="1" parent="0P9crNBqe6AhgqF-sUGG-1" source="0P9crNBqe6AhgqF-sUGG-7" target="0P9crNBqe6AhgqF-sUGG-9">
          <mxGeometry relative="1" as="geometry" />
        </mxCell>
        <mxCell id="0P9crNBqe6AhgqF-sUGG-7" value="Spending Screen" style="rounded=0;whiteSpace=wrap;html=1;" vertex="1" parent="0P9crNBqe6AhgqF-sUGG-1">
          <mxGeometry x="320" y="40" width="120" height="60" as="geometry" />
        </mxCell>
        <mxCell id="0P9crNBqe6AhgqF-sUGG-8" style="edgeStyle=none;rounded=0;orthogonalLoop=1;jettySize=auto;html=1;entryX=0.5;entryY=0;entryDx=0;entryDy=0;" edge="1" parent="0P9crNBqe6AhgqF-sUGG-1" source="0P9crNBqe6AhgqF-sUGG-9" target="0P9crNBqe6AhgqF-sUGG-13">
          <mxGeometry relative="1" as="geometry" />
        </mxCell>
        <mxCell id="0P9crNBqe6AhgqF-sUGG-9" value="Change Category" style="rhombus;whiteSpace=wrap;html=1;" vertex="1" parent="0P9crNBqe6AhgqF-sUGG-1">
          <mxGeometry x="340" y="120" width="80" height="80" as="geometry" />
        </mxCell>
        <mxCell id="0P9crNBqe6AhgqF-sUGG-10" style="edgeStyle=none;rounded=0;orthogonalLoop=1;jettySize=auto;html=1;entryX=0.5;entryY=0;entryDx=0;entryDy=0;" edge="1" parent="0P9crNBqe6AhgqF-sUGG-1" source="0P9crNBqe6AhgqF-sUGG-13" target="0P9crNBqe6AhgqF-sUGG-15">
          <mxGeometry relative="1" as="geometry" />
        </mxCell>
        <mxCell id="0P9crNBqe6AhgqF-sUGG-12" style="edgeStyle=none;rounded=0;orthogonalLoop=1;jettySize=auto;html=1;entryX=0;entryY=0.5;entryDx=0;entryDy=0;" edge="1" parent="0P9crNBqe6AhgqF-sUGG-1" source="0P9crNBqe6AhgqF-sUGG-13" target="0P9crNBqe6AhgqF-sUGG-21">
          <mxGeometry relative="1" as="geometry" />
        </mxCell>
        <mxCell id="rHr1Oa9dsDszr-_RGJR4-0" style="edgeStyle=none;rounded=0;orthogonalLoop=1;jettySize=auto;html=1;entryX=1;entryY=0;entryDx=0;entryDy=0;" edge="1" parent="0P9crNBqe6AhgqF-sUGG-1" source="0P9crNBqe6AhgqF-sUGG-13" target="0P9crNBqe6AhgqF-sUGG-17">
          <mxGeometry relative="1" as="geometry" />
        </mxCell>
        <mxCell id="0P9crNBqe6AhgqF-sUGG-13" value="Spending Screen w/ Change Category Popup" style="rounded=0;whiteSpace=wrap;html=1;" vertex="1" parent="0P9crNBqe6AhgqF-sUGG-1">
          <mxGeometry x="320" y="230" width="120" height="60" as="geometry" />
        </mxCell>
        <mxCell id="0P9crNBqe6AhgqF-sUGG-14" style="edgeStyle=none;rounded=0;orthogonalLoop=1;jettySize=auto;html=1;entryX=0.5;entryY=0;entryDx=0;entryDy=0;" edge="1" parent="0P9crNBqe6AhgqF-sUGG-1" source="0P9crNBqe6AhgqF-sUGG-15" target="0P9crNBqe6AhgqF-sUGG-19">
          <mxGeometry relative="1" as="geometry" />
        </mxCell>
        <mxCell id="0P9crNBqe6AhgqF-sUGG-15" value="Done" style="rhombus;whiteSpace=wrap;html=1;" vertex="1" parent="0P9crNBqe6AhgqF-sUGG-1">
          <mxGeometry x="285" y="340" width="80" height="80" as="geometry" />
        </mxCell>
        <mxCell id="rHr1Oa9dsDszr-_RGJR4-1" style="edgeStyle=none;rounded=0;orthogonalLoop=1;jettySize=auto;html=1;entryX=0;entryY=1;entryDx=0;entryDy=0;" edge="1" parent="0P9crNBqe6AhgqF-sUGG-1" source="0P9crNBqe6AhgqF-sUGG-17" target="0P9crNBqe6AhgqF-sUGG-7">
          <mxGeometry relative="1" as="geometry" />
        </mxCell>
        <mxCell id="0P9crNBqe6AhgqF-sUGG-17" value="Cancel" style="rhombus;whiteSpace=wrap;html=1;" vertex="1" parent="0P9crNBqe6AhgqF-sUGG-1">
          <mxGeometry x="180" y="340" width="80" height="80" as="geometry" />
        </mxCell>
        <mxCell id="0P9crNBqe6AhgqF-sUGG-18" style="edgeStyle=orthogonalEdgeStyle;rounded=0;orthogonalLoop=1;jettySize=auto;html=1;entryX=0.5;entryY=0;entryDx=0;entryDy=0;" edge="1" parent="0P9crNBqe6AhgqF-sUGG-1" source="0P9crNBqe6AhgqF-sUGG-19" target="0P9crNBqe6AhgqF-sUGG-7">
          <mxGeometry relative="1" as="geometry">
            <Array as="points">
              <mxPoint x="20" y="500" />
              <mxPoint x="20" y="20" />
              <mxPoint x="380" y="20" />
            </Array>
          </mxGeometry>
        </mxCell>
        <mxCell id="0P9crNBqe6AhgqF-sUGG-19" value="Spending Category Changes to Selected Category" style="rounded=0;whiteSpace=wrap;html=1;" vertex="1" parent="0P9crNBqe6AhgqF-sUGG-1">
          <mxGeometry x="265" y="470" width="120" height="60" as="geometry" />
        </mxCell>
        <mxCell id="0P9crNBqe6AhgqF-sUGG-20" style="edgeStyle=none;rounded=0;orthogonalLoop=1;jettySize=auto;html=1;" edge="1" parent="0P9crNBqe6AhgqF-sUGG-1" source="0P9crNBqe6AhgqF-sUGG-21" target="0P9crNBqe6AhgqF-sUGG-23">
          <mxGeometry relative="1" as="geometry" />
        </mxCell>
        <mxCell id="0P9crNBqe6AhgqF-sUGG-21" value="Dropdown Arrow" style="rhombus;whiteSpace=wrap;html=1;" vertex="1" parent="0P9crNBqe6AhgqF-sUGG-1">
          <mxGeometry x="520" y="220" width="80" height="80" as="geometry" />
        </mxCell>
        <mxCell id="0P9crNBqe6AhgqF-sUGG-22" style="edgeStyle=none;rounded=0;orthogonalLoop=1;jettySize=auto;html=1;entryX=0.5;entryY=0;entryDx=0;entryDy=0;" edge="1" parent="0P9crNBqe6AhgqF-sUGG-1" source="0P9crNBqe6AhgqF-sUGG-23" target="0P9crNBqe6AhgqF-sUGG-25">
          <mxGeometry relative="1" as="geometry" />
        </mxCell>
        <mxCell id="0P9crNBqe6AhgqF-sUGG-23" value="Dropdown Menu Appears" style="rounded=0;whiteSpace=wrap;html=1;" vertex="1" parent="0P9crNBqe6AhgqF-sUGG-1">
          <mxGeometry x="500" y="350" width="120" height="60" as="geometry" />
        </mxCell>
        <mxCell id="0P9crNBqe6AhgqF-sUGG-24" style="edgeStyle=none;rounded=0;orthogonalLoop=1;jettySize=auto;html=1;entryX=0.5;entryY=0;entryDx=0;entryDy=0;" edge="1" parent="0P9crNBqe6AhgqF-sUGG-1" source="0P9crNBqe6AhgqF-sUGG-25" target="0P9crNBqe6AhgqF-sUGG-26">
          <mxGeometry relative="1" as="geometry" />
        </mxCell>
        <mxCell id="0P9crNBqe6AhgqF-sUGG-25" value="Select Item" style="rhombus;whiteSpace=wrap;html=1;" vertex="1" parent="0P9crNBqe6AhgqF-sUGG-1">
          <mxGeometry x="520" y="460" width="80" height="80" as="geometry" />
        </mxCell>
        <mxCell id="0P9crNBqe6AhgqF-sUGG-26" value="Selected Category Updates" style="rounded=0;whiteSpace=wrap;html=1;" vertex="1" parent="0P9crNBqe6AhgqF-sUGG-1">
          <mxGeometry x="500" y="590" width="120" height="60" as="geometry" />
        </mxCell>
        <mxCell id="0P9crNBqe6AhgqF-sUGG-27" style="edgeStyle=orthogonalEdgeStyle;rounded=0;orthogonalLoop=1;jettySize=auto;html=1;entryX=0.75;entryY=1;entryDx=0;entryDy=0;" edge="1" parent="0P9crNBqe6AhgqF-sUGG-1" source="0P9crNBqe6AhgqF-sUGG-26" target="0P9crNBqe6AhgqF-sUGG-13">
          <mxGeometry relative="1" as="geometry">
            <Array as="points">
              <mxPoint x="410" y="620" />
            </Array>
          </mxGeometry>
        </mxCell>
      </root>
    </mxGraphModel>
  </diagram>
  <diagram name="Spending Add Category Journey" id="Bt97yoWymNxuHeB6ujj7">
    <mxGraphModel dx="1434" dy="892" grid="1" gridSize="10" guides="1" tooltips="1" connect="1" arrows="1" fold="1" page="1" pageScale="1" pageWidth="850" pageHeight="1100" math="0" shadow="0">
      <root>
        <mxCell id="uk97b4A8hQGZzyDmq75y-0" />
        <mxCell id="uk97b4A8hQGZzyDmq75y-1" parent="uk97b4A8hQGZzyDmq75y-0" />
        <mxCell id="uk97b4A8hQGZzyDmq75y-2" style="rounded=0;orthogonalLoop=1;jettySize=auto;html=1;entryX=0;entryY=0.5;entryDx=0;entryDy=0;" edge="1" parent="uk97b4A8hQGZzyDmq75y-1" source="uk97b4A8hQGZzyDmq75y-3" target="uk97b4A8hQGZzyDmq75y-5">
          <mxGeometry relative="1" as="geometry" />
        </mxCell>
        <mxCell id="uk97b4A8hQGZzyDmq75y-3" value="Job Profile Screen" style="rounded=0;whiteSpace=wrap;html=1;" vertex="1" parent="uk97b4A8hQGZzyDmq75y-1">
          <mxGeometry x="40" y="40" width="120" height="60" as="geometry" />
        </mxCell>
        <mxCell id="uk97b4A8hQGZzyDmq75y-4" style="rounded=0;orthogonalLoop=1;jettySize=auto;html=1;entryX=0;entryY=0.5;entryDx=0;entryDy=0;" edge="1" parent="uk97b4A8hQGZzyDmq75y-1" source="uk97b4A8hQGZzyDmq75y-5" target="uk97b4A8hQGZzyDmq75y-7">
          <mxGeometry relative="1" as="geometry" />
        </mxCell>
        <mxCell id="uk97b4A8hQGZzyDmq75y-5" value="Spending" style="rhombus;whiteSpace=wrap;html=1;" vertex="1" parent="uk97b4A8hQGZzyDmq75y-1">
          <mxGeometry x="200" y="30" width="80" height="80" as="geometry" />
        </mxCell>
        <mxCell id="uk97b4A8hQGZzyDmq75y-6" style="edgeStyle=none;rounded=0;orthogonalLoop=1;jettySize=auto;html=1;entryX=0.5;entryY=0;entryDx=0;entryDy=0;" edge="1" parent="uk97b4A8hQGZzyDmq75y-1" source="uk97b4A8hQGZzyDmq75y-7" target="uk97b4A8hQGZzyDmq75y-9">
          <mxGeometry relative="1" as="geometry" />
        </mxCell>
        <mxCell id="uk97b4A8hQGZzyDmq75y-7" value="Spending Screen" style="rounded=0;whiteSpace=wrap;html=1;" vertex="1" parent="uk97b4A8hQGZzyDmq75y-1">
          <mxGeometry x="320" y="40" width="120" height="60" as="geometry" />
        </mxCell>
        <mxCell id="uk97b4A8hQGZzyDmq75y-8" style="edgeStyle=none;rounded=0;orthogonalLoop=1;jettySize=auto;html=1;entryX=0.5;entryY=0;entryDx=0;entryDy=0;" edge="1" parent="uk97b4A8hQGZzyDmq75y-1" source="uk97b4A8hQGZzyDmq75y-9" target="uk97b4A8hQGZzyDmq75y-14">
          <mxGeometry relative="1" as="geometry" />
        </mxCell>
        <mxCell id="uk97b4A8hQGZzyDmq75y-9" value="Add Category" style="rhombus;whiteSpace=wrap;html=1;" vertex="1" parent="uk97b4A8hQGZzyDmq75y-1">
          <mxGeometry x="340" y="120" width="80" height="80" as="geometry" />
        </mxCell>
        <mxCell id="uk97b4A8hQGZzyDmq75y-12" style="edgeStyle=none;rounded=0;orthogonalLoop=1;jettySize=auto;html=1;entryX=0.5;entryY=0;entryDx=0;entryDy=0;" edge="1" parent="uk97b4A8hQGZzyDmq75y-1" source="uk97b4A8hQGZzyDmq75y-14" target="uk97b4A8hQGZzyDmq75y-18">
          <mxGeometry relative="1" as="geometry" />
        </mxCell>
        <mxCell id="uk97b4A8hQGZzyDmq75y-13" style="edgeStyle=none;rounded=0;orthogonalLoop=1;jettySize=auto;html=1;entryX=1;entryY=0.5;entryDx=0;entryDy=0;" edge="1" parent="uk97b4A8hQGZzyDmq75y-1" source="uk97b4A8hQGZzyDmq75y-14" target="uk97b4A8hQGZzyDmq75y-20">
          <mxGeometry relative="1" as="geometry" />
        </mxCell>
        <mxCell id="uk97b4A8hQGZzyDmq75y-14" value="Spending Screen w/ Add Category Popup" style="rounded=0;whiteSpace=wrap;html=1;" vertex="1" parent="uk97b4A8hQGZzyDmq75y-1">
          <mxGeometry x="320" y="230" width="120" height="60" as="geometry" />
        </mxCell>
        <mxCell id="uk97b4A8hQGZzyDmq75y-15" value="Enter Name" style="rhombus;whiteSpace=wrap;html=1;" vertex="1" parent="uk97b4A8hQGZzyDmq75y-1">
          <mxGeometry x="385" y="340" width="80" height="80" as="geometry" />
        </mxCell>
        <mxCell id="uk97b4A8hQGZzyDmq75y-17" style="edgeStyle=none;rounded=0;orthogonalLoop=1;jettySize=auto;html=1;entryX=0.5;entryY=0;entryDx=0;entryDy=0;" edge="1" parent="uk97b4A8hQGZzyDmq75y-1" source="uk97b4A8hQGZzyDmq75y-18" target="uk97b4A8hQGZzyDmq75y-22">
          <mxGeometry relative="1" as="geometry" />
        </mxCell>
        <mxCell id="uk97b4A8hQGZzyDmq75y-18" value="Done" style="rhombus;whiteSpace=wrap;html=1;" vertex="1" parent="uk97b4A8hQGZzyDmq75y-1">
          <mxGeometry x="285" y="340" width="80" height="80" as="geometry" />
        </mxCell>
        <mxCell id="uk97b4A8hQGZzyDmq75y-19" style="edgeStyle=none;rounded=0;orthogonalLoop=1;jettySize=auto;html=1;entryX=0;entryY=1;entryDx=0;entryDy=0;" edge="1" parent="uk97b4A8hQGZzyDmq75y-1" source="uk97b4A8hQGZzyDmq75y-20" target="uk97b4A8hQGZzyDmq75y-7">
          <mxGeometry relative="1" as="geometry" />
        </mxCell>
        <mxCell id="uk97b4A8hQGZzyDmq75y-20" value="Cancel" style="rhombus;whiteSpace=wrap;html=1;" vertex="1" parent="uk97b4A8hQGZzyDmq75y-1">
          <mxGeometry x="180" y="340" width="80" height="80" as="geometry" />
        </mxCell>
        <mxCell id="uk97b4A8hQGZzyDmq75y-21" style="edgeStyle=orthogonalEdgeStyle;rounded=0;orthogonalLoop=1;jettySize=auto;html=1;entryX=1;entryY=0.5;entryDx=0;entryDy=0;" edge="1" parent="uk97b4A8hQGZzyDmq75y-1" source="uk97b4A8hQGZzyDmq75y-22" target="uk97b4A8hQGZzyDmq75y-7">
          <mxGeometry relative="1" as="geometry">
            <Array as="points">
              <mxPoint x="480" y="500" />
              <mxPoint x="480" y="70" />
            </Array>
          </mxGeometry>
        </mxCell>
        <mxCell id="uk97b4A8hQGZzyDmq75y-22" value="Item Added to Category" style="rounded=0;whiteSpace=wrap;html=1;" vertex="1" parent="uk97b4A8hQGZzyDmq75y-1">
          <mxGeometry x="265" y="470" width="120" height="60" as="geometry" />
        </mxCell>
        <mxCell id="5rs87562NzWFuG_fI2er-0" style="edgeStyle=none;rounded=0;orthogonalLoop=1;jettySize=auto;html=1;entryX=0.867;entryY=1.017;entryDx=0;entryDy=0;entryPerimeter=0;" edge="1" parent="uk97b4A8hQGZzyDmq75y-1" source="uk97b4A8hQGZzyDmq75y-15" target="uk97b4A8hQGZzyDmq75y-14">
          <mxGeometry relative="1" as="geometry" />
        </mxCell>
        <mxCell id="5rs87562NzWFuG_fI2er-1" style="edgeStyle=none;rounded=0;orthogonalLoop=1;jettySize=auto;html=1;exitX=0.75;exitY=1;exitDx=0;exitDy=0;entryX=0.325;entryY=0.15;entryDx=0;entryDy=0;entryPerimeter=0;" edge="1" parent="uk97b4A8hQGZzyDmq75y-1" source="uk97b4A8hQGZzyDmq75y-14" target="uk97b4A8hQGZzyDmq75y-15">
          <mxGeometry relative="1" as="geometry" />
        </mxCell>
      </root>
    </mxGraphModel>
  </diagram>
  <diagram name="Spending Remove Category Journey" id="PB91-UIj6N4oPD-CdSAZ">
    <mxGraphModel dx="1434" dy="892" grid="1" gridSize="10" guides="1" tooltips="1" connect="1" arrows="1" fold="1" page="1" pageScale="1" pageWidth="850" pageHeight="1100" math="0" shadow="0">
      <root>
        <mxCell id="cGAdf2ZX6M1Gmf9oSsY_-0" />
        <mxCell id="cGAdf2ZX6M1Gmf9oSsY_-1" parent="cGAdf2ZX6M1Gmf9oSsY_-0" />
        <mxCell id="cGAdf2ZX6M1Gmf9oSsY_-2" style="rounded=0;orthogonalLoop=1;jettySize=auto;html=1;entryX=0;entryY=0.5;entryDx=0;entryDy=0;" edge="1" parent="cGAdf2ZX6M1Gmf9oSsY_-1" source="cGAdf2ZX6M1Gmf9oSsY_-3" target="cGAdf2ZX6M1Gmf9oSsY_-5">
          <mxGeometry relative="1" as="geometry" />
        </mxCell>
        <mxCell id="cGAdf2ZX6M1Gmf9oSsY_-3" value="Job Profile Screen" style="rounded=0;whiteSpace=wrap;html=1;" vertex="1" parent="cGAdf2ZX6M1Gmf9oSsY_-1">
          <mxGeometry x="40" y="40" width="120" height="60" as="geometry" />
        </mxCell>
        <mxCell id="cGAdf2ZX6M1Gmf9oSsY_-4" style="rounded=0;orthogonalLoop=1;jettySize=auto;html=1;entryX=0;entryY=0.5;entryDx=0;entryDy=0;" edge="1" parent="cGAdf2ZX6M1Gmf9oSsY_-1" source="cGAdf2ZX6M1Gmf9oSsY_-5" target="cGAdf2ZX6M1Gmf9oSsY_-7">
          <mxGeometry relative="1" as="geometry" />
        </mxCell>
        <mxCell id="cGAdf2ZX6M1Gmf9oSsY_-5" value="Spending" style="rhombus;whiteSpace=wrap;html=1;" vertex="1" parent="cGAdf2ZX6M1Gmf9oSsY_-1">
          <mxGeometry x="200" y="30" width="80" height="80" as="geometry" />
        </mxCell>
        <mxCell id="cGAdf2ZX6M1Gmf9oSsY_-6" style="edgeStyle=none;rounded=0;orthogonalLoop=1;jettySize=auto;html=1;entryX=0.5;entryY=0;entryDx=0;entryDy=0;" edge="1" parent="cGAdf2ZX6M1Gmf9oSsY_-1" source="cGAdf2ZX6M1Gmf9oSsY_-7" target="cGAdf2ZX6M1Gmf9oSsY_-9">
          <mxGeometry relative="1" as="geometry" />
        </mxCell>
        <mxCell id="cGAdf2ZX6M1Gmf9oSsY_-7" value="Spending Screen" style="rounded=0;whiteSpace=wrap;html=1;" vertex="1" parent="cGAdf2ZX6M1Gmf9oSsY_-1">
          <mxGeometry x="320" y="40" width="120" height="60" as="geometry" />
        </mxCell>
        <mxCell id="cGAdf2ZX6M1Gmf9oSsY_-8" style="edgeStyle=none;rounded=0;orthogonalLoop=1;jettySize=auto;html=1;entryX=0.5;entryY=0;entryDx=0;entryDy=0;" edge="1" parent="cGAdf2ZX6M1Gmf9oSsY_-1" source="cGAdf2ZX6M1Gmf9oSsY_-9" target="cGAdf2ZX6M1Gmf9oSsY_-13">
          <mxGeometry relative="1" as="geometry" />
        </mxCell>
        <mxCell id="cGAdf2ZX6M1Gmf9oSsY_-9" value="Remove Category" style="rhombus;whiteSpace=wrap;html=1;" vertex="1" parent="cGAdf2ZX6M1Gmf9oSsY_-1">
          <mxGeometry x="340" y="120" width="80" height="80" as="geometry" />
        </mxCell>
        <mxCell id="cGAdf2ZX6M1Gmf9oSsY_-10" style="edgeStyle=none;rounded=0;orthogonalLoop=1;jettySize=auto;html=1;entryX=0.5;entryY=0;entryDx=0;entryDy=0;" edge="1" parent="cGAdf2ZX6M1Gmf9oSsY_-1" source="cGAdf2ZX6M1Gmf9oSsY_-13" target="cGAdf2ZX6M1Gmf9oSsY_-15">
          <mxGeometry relative="1" as="geometry" />
        </mxCell>
        <mxCell id="cGAdf2ZX6M1Gmf9oSsY_-11" style="edgeStyle=none;rounded=0;orthogonalLoop=1;jettySize=auto;html=1;entryX=1;entryY=0.5;entryDx=0;entryDy=0;" edge="1" parent="cGAdf2ZX6M1Gmf9oSsY_-1" source="cGAdf2ZX6M1Gmf9oSsY_-13" target="cGAdf2ZX6M1Gmf9oSsY_-17">
          <mxGeometry relative="1" as="geometry" />
        </mxCell>
        <mxCell id="cGAdf2ZX6M1Gmf9oSsY_-12" style="edgeStyle=none;rounded=0;orthogonalLoop=1;jettySize=auto;html=1;entryX=0;entryY=0.5;entryDx=0;entryDy=0;" edge="1" parent="cGAdf2ZX6M1Gmf9oSsY_-1" source="cGAdf2ZX6M1Gmf9oSsY_-13" target="cGAdf2ZX6M1Gmf9oSsY_-21">
          <mxGeometry relative="1" as="geometry" />
        </mxCell>
        <mxCell id="cGAdf2ZX6M1Gmf9oSsY_-13" value="Spending Screen w/ Remove Category Popup" style="rounded=0;whiteSpace=wrap;html=1;" vertex="1" parent="cGAdf2ZX6M1Gmf9oSsY_-1">
          <mxGeometry x="320" y="230" width="120" height="60" as="geometry" />
        </mxCell>
        <mxCell id="cGAdf2ZX6M1Gmf9oSsY_-14" style="edgeStyle=none;rounded=0;orthogonalLoop=1;jettySize=auto;html=1;entryX=0.5;entryY=0;entryDx=0;entryDy=0;" edge="1" parent="cGAdf2ZX6M1Gmf9oSsY_-1" source="cGAdf2ZX6M1Gmf9oSsY_-15" target="cGAdf2ZX6M1Gmf9oSsY_-19">
          <mxGeometry relative="1" as="geometry" />
        </mxCell>
        <mxCell id="cGAdf2ZX6M1Gmf9oSsY_-15" value="Done" style="rhombus;whiteSpace=wrap;html=1;" vertex="1" parent="cGAdf2ZX6M1Gmf9oSsY_-1">
          <mxGeometry x="285" y="340" width="80" height="80" as="geometry" />
        </mxCell>
        <mxCell id="cGAdf2ZX6M1Gmf9oSsY_-16" style="rounded=0;orthogonalLoop=1;jettySize=auto;html=1;exitX=0.5;exitY=0;exitDx=0;exitDy=0;entryX=0;entryY=1;entryDx=0;entryDy=0;" edge="1" parent="cGAdf2ZX6M1Gmf9oSsY_-1" source="cGAdf2ZX6M1Gmf9oSsY_-17" target="cGAdf2ZX6M1Gmf9oSsY_-7">
          <mxGeometry relative="1" as="geometry" />
        </mxCell>
        <mxCell id="cGAdf2ZX6M1Gmf9oSsY_-17" value="Cancel" style="rhombus;whiteSpace=wrap;html=1;" vertex="1" parent="cGAdf2ZX6M1Gmf9oSsY_-1">
          <mxGeometry x="180" y="340" width="80" height="80" as="geometry" />
        </mxCell>
        <mxCell id="cGAdf2ZX6M1Gmf9oSsY_-18" style="edgeStyle=orthogonalEdgeStyle;rounded=0;orthogonalLoop=1;jettySize=auto;html=1;entryX=0.5;entryY=0;entryDx=0;entryDy=0;" edge="1" parent="cGAdf2ZX6M1Gmf9oSsY_-1" source="cGAdf2ZX6M1Gmf9oSsY_-19" target="cGAdf2ZX6M1Gmf9oSsY_-7">
          <mxGeometry relative="1" as="geometry">
            <Array as="points">
              <mxPoint x="20" y="500" />
              <mxPoint x="20" y="20" />
              <mxPoint x="380" y="20" />
            </Array>
          </mxGeometry>
        </mxCell>
        <mxCell id="cGAdf2ZX6M1Gmf9oSsY_-19" value="Selected Category and its Items are removed" style="rounded=0;whiteSpace=wrap;html=1;" vertex="1" parent="cGAdf2ZX6M1Gmf9oSsY_-1">
          <mxGeometry x="265" y="470" width="120" height="60" as="geometry" />
        </mxCell>
        <mxCell id="cGAdf2ZX6M1Gmf9oSsY_-20" style="edgeStyle=none;rounded=0;orthogonalLoop=1;jettySize=auto;html=1;" edge="1" parent="cGAdf2ZX6M1Gmf9oSsY_-1" source="cGAdf2ZX6M1Gmf9oSsY_-21" target="cGAdf2ZX6M1Gmf9oSsY_-23">
          <mxGeometry relative="1" as="geometry" />
        </mxCell>
        <mxCell id="cGAdf2ZX6M1Gmf9oSsY_-21" value="Dropdown Arrow" style="rhombus;whiteSpace=wrap;html=1;" vertex="1" parent="cGAdf2ZX6M1Gmf9oSsY_-1">
          <mxGeometry x="520" y="220" width="80" height="80" as="geometry" />
        </mxCell>
        <mxCell id="cGAdf2ZX6M1Gmf9oSsY_-22" style="edgeStyle=none;rounded=0;orthogonalLoop=1;jettySize=auto;html=1;entryX=0.5;entryY=0;entryDx=0;entryDy=0;" edge="1" parent="cGAdf2ZX6M1Gmf9oSsY_-1" source="cGAdf2ZX6M1Gmf9oSsY_-23" target="cGAdf2ZX6M1Gmf9oSsY_-25">
          <mxGeometry relative="1" as="geometry" />
        </mxCell>
        <mxCell id="cGAdf2ZX6M1Gmf9oSsY_-23" value="Dropdown Menu Appears" style="rounded=0;whiteSpace=wrap;html=1;" vertex="1" parent="cGAdf2ZX6M1Gmf9oSsY_-1">
          <mxGeometry x="500" y="350" width="120" height="60" as="geometry" />
        </mxCell>
        <mxCell id="cGAdf2ZX6M1Gmf9oSsY_-24" style="edgeStyle=none;rounded=0;orthogonalLoop=1;jettySize=auto;html=1;entryX=0.5;entryY=0;entryDx=0;entryDy=0;" edge="1" parent="cGAdf2ZX6M1Gmf9oSsY_-1" source="cGAdf2ZX6M1Gmf9oSsY_-25" target="cGAdf2ZX6M1Gmf9oSsY_-26">
          <mxGeometry relative="1" as="geometry" />
        </mxCell>
        <mxCell id="cGAdf2ZX6M1Gmf9oSsY_-25" value="Select Category" style="rhombus;whiteSpace=wrap;html=1;" vertex="1" parent="cGAdf2ZX6M1Gmf9oSsY_-1">
          <mxGeometry x="520" y="460" width="80" height="80" as="geometry" />
        </mxCell>
        <mxCell id="cGAdf2ZX6M1Gmf9oSsY_-26" value="Selected Category Updates" style="rounded=0;whiteSpace=wrap;html=1;" vertex="1" parent="cGAdf2ZX6M1Gmf9oSsY_-1">
          <mxGeometry x="500" y="590" width="120" height="60" as="geometry" />
        </mxCell>
        <mxCell id="cGAdf2ZX6M1Gmf9oSsY_-27" style="edgeStyle=orthogonalEdgeStyle;rounded=0;orthogonalLoop=1;jettySize=auto;html=1;entryX=0.75;entryY=1;entryDx=0;entryDy=0;" edge="1" parent="cGAdf2ZX6M1Gmf9oSsY_-1" source="cGAdf2ZX6M1Gmf9oSsY_-26" target="cGAdf2ZX6M1Gmf9oSsY_-13">
          <mxGeometry relative="1" as="geometry">
            <Array as="points">
              <mxPoint x="410" y="620" />
            </Array>
          </mxGeometry>
        </mxCell>
      </root>
    </mxGraphModel>
  </diagram>
  <diagram id="2WNfz79z6fC56rpAtd4a" name="Summary Journey">
    <mxGraphModel dx="1434" dy="892" grid="1" gridSize="10" guides="1" tooltips="1" connect="1" arrows="1" fold="1" page="1" pageScale="1" pageWidth="850" pageHeight="1100" math="0" shadow="0">
      <root>
        <mxCell id="0" />
        <mxCell id="1" parent="0" />
        <mxCell id="KwemYM0d1bBIl24DlWm2-3" style="edgeStyle=none;rounded=0;orthogonalLoop=1;jettySize=auto;html=1;entryX=0;entryY=0.5;entryDx=0;entryDy=0;" edge="1" parent="1" source="KwemYM0d1bBIl24DlWm2-1" target="KwemYM0d1bBIl24DlWm2-2">
          <mxGeometry relative="1" as="geometry" />
        </mxCell>
        <mxCell id="KwemYM0d1bBIl24DlWm2-1" value="Job Profile View" style="rounded=0;whiteSpace=wrap;html=1;" vertex="1" parent="1">
          <mxGeometry x="40" y="40" width="120" height="60" as="geometry" />
        </mxCell>
        <mxCell id="KwemYM0d1bBIl24DlWm2-5" style="edgeStyle=none;rounded=0;orthogonalLoop=1;jettySize=auto;html=1;entryX=0;entryY=0.5;entryDx=0;entryDy=0;" edge="1" parent="1" source="KwemYM0d1bBIl24DlWm2-2" target="KwemYM0d1bBIl24DlWm2-4">
          <mxGeometry relative="1" as="geometry" />
        </mxCell>
        <mxCell id="KwemYM0d1bBIl24DlWm2-2" value="Summary" style="rhombus;whiteSpace=wrap;html=1;" vertex="1" parent="1">
          <mxGeometry x="200" y="30" width="80" height="80" as="geometry" />
        </mxCell>
        <mxCell id="KwemYM0d1bBIl24DlWm2-7" style="edgeStyle=none;rounded=0;orthogonalLoop=1;jettySize=auto;html=1;entryX=0.5;entryY=0;entryDx=0;entryDy=0;" edge="1" parent="1" source="KwemYM0d1bBIl24DlWm2-4" target="KwemYM0d1bBIl24DlWm2-6">
          <mxGeometry relative="1" as="geometry" />
        </mxCell>
        <mxCell id="KwemYM0d1bBIl24DlWm2-11" style="edgeStyle=none;rounded=0;orthogonalLoop=1;jettySize=auto;html=1;entryX=0.5;entryY=0;entryDx=0;entryDy=0;" edge="1" parent="1" source="KwemYM0d1bBIl24DlWm2-4" target="KwemYM0d1bBIl24DlWm2-9">
          <mxGeometry relative="1" as="geometry" />
        </mxCell>
        <mxCell id="KwemYM0d1bBIl24DlWm2-4" value="Summary Screen" style="rounded=0;whiteSpace=wrap;html=1;" vertex="1" parent="1">
          <mxGeometry x="320" y="40" width="120" height="60" as="geometry" />
        </mxCell>
        <mxCell id="KwemYM0d1bBIl24DlWm2-8" style="edgeStyle=orthogonalEdgeStyle;rounded=0;orthogonalLoop=1;jettySize=auto;html=1;entryX=0.5;entryY=1;entryDx=0;entryDy=0;" edge="1" parent="1" source="KwemYM0d1bBIl24DlWm2-6" target="KwemYM0d1bBIl24DlWm2-1">
          <mxGeometry relative="1" as="geometry" />
        </mxCell>
        <mxCell id="KwemYM0d1bBIl24DlWm2-6" value="Back" style="rhombus;whiteSpace=wrap;html=1;" vertex="1" parent="1">
          <mxGeometry x="340" y="160" width="80" height="80" as="geometry" />
        </mxCell>
        <mxCell id="KwemYM0d1bBIl24DlWm2-9" value="Save" style="rhombus;whiteSpace=wrap;html=1;" vertex="1" parent="1">
          <mxGeometry x="480" y="160" width="80" height="80" as="geometry" />
        </mxCell>
        <mxCell id="KwemYM0d1bBIl24DlWm2-13" style="edgeStyle=orthogonalEdgeStyle;rounded=0;orthogonalLoop=1;jettySize=auto;html=1;entryX=1;entryY=0.5;entryDx=0;entryDy=0;" edge="1" parent="1" source="KwemYM0d1bBIl24DlWm2-12" target="KwemYM0d1bBIl24DlWm2-4">
          <mxGeometry relative="1" as="geometry">
            <Array as="points">
              <mxPoint x="600" y="310" />
              <mxPoint x="600" y="70" />
            </Array>
          </mxGeometry>
        </mxCell>
        <mxCell id="KwemYM0d1bBIl24DlWm2-14" style="edgeStyle=none;rounded=0;orthogonalLoop=1;jettySize=auto;html=1;entryX=0.75;entryY=1;entryDx=0;entryDy=0;" edge="1" parent="1" source="KwemYM0d1bBIl24DlWm2-12" target="KwemYM0d1bBIl24DlWm2-4">
          <mxGeometry relative="1" as="geometry" />
        </mxCell>
        <mxCell id="KwemYM0d1bBIl24DlWm2-12" value="Pdf Save Popup" style="rounded=0;whiteSpace=wrap;html=1;" vertex="1" parent="1">
          <mxGeometry x="460" y="280" width="120" height="60" as="geometry" />
        </mxCell>
      </root>
    </mxGraphModel>
  </diagram>
  <diagram id="cdaSORjy-0LJHHFEEdXZ" name="Page-15">
    <mxGraphModel dx="1434" dy="892" grid="1" gridSize="10" guides="1" tooltips="1" connect="1" arrows="1" fold="1" page="1" pageScale="1" pageWidth="850" pageHeight="1100" math="0" shadow="0">
      <root>
        <mxCell id="0" />
        <mxCell id="1" parent="0" />
        <mxCell id="P7xCqrhaF6OvI3bRq2u6-3" style="edgeStyle=none;rounded=0;orthogonalLoop=1;jettySize=auto;html=1;entryX=0;entryY=0.5;entryDx=0;entryDy=0;" edge="1" parent="1" source="P7xCqrhaF6OvI3bRq2u6-1" target="P7xCqrhaF6OvI3bRq2u6-2">
          <mxGeometry relative="1" as="geometry" />
        </mxCell>
        <mxCell id="P7xCqrhaF6OvI3bRq2u6-1" value="Job Profile View" style="rounded=0;whiteSpace=wrap;html=1;" vertex="1" parent="1">
          <mxGeometry x="40" y="40" width="120" height="60" as="geometry" />
        </mxCell>
        <mxCell id="P7xCqrhaF6OvI3bRq2u6-5" style="edgeStyle=none;rounded=0;orthogonalLoop=1;jettySize=auto;html=1;entryX=0;entryY=0.5;entryDx=0;entryDy=0;" edge="1" parent="1" source="P7xCqrhaF6OvI3bRq2u6-2" target="P7xCqrhaF6OvI3bRq2u6-4">
          <mxGeometry relative="1" as="geometry" />
        </mxCell>
        <mxCell id="P7xCqrhaF6OvI3bRq2u6-2" value="Shedule" style="rhombus;whiteSpace=wrap;html=1;" vertex="1" parent="1">
          <mxGeometry x="200" y="30" width="80" height="80" as="geometry" />
        </mxCell>
        <mxCell id="P7xCqrhaF6OvI3bRq2u6-8" style="edgeStyle=none;rounded=0;orthogonalLoop=1;jettySize=auto;html=1;entryX=0.5;entryY=0;entryDx=0;entryDy=0;" edge="1" parent="1" source="P7xCqrhaF6OvI3bRq2u6-4" target="P7xCqrhaF6OvI3bRq2u6-6">
          <mxGeometry relative="1" as="geometry" />
        </mxCell>
        <mxCell id="P7xCqrhaF6OvI3bRq2u6-9" style="edgeStyle=none;rounded=0;orthogonalLoop=1;jettySize=auto;html=1;entryX=0.5;entryY=0;entryDx=0;entryDy=0;" edge="1" parent="1" source="P7xCqrhaF6OvI3bRq2u6-4" target="P7xCqrhaF6OvI3bRq2u6-7">
          <mxGeometry relative="1" as="geometry" />
        </mxCell>
        <mxCell id="P7xCqrhaF6OvI3bRq2u6-4" value="Schedule Screen" style="rounded=0;whiteSpace=wrap;html=1;" vertex="1" parent="1">
          <mxGeometry x="320" y="40" width="120" height="60" as="geometry" />
        </mxCell>
        <mxCell id="P7xCqrhaF6OvI3bRq2u6-11" style="edgeStyle=none;rounded=0;orthogonalLoop=1;jettySize=auto;html=1;entryX=0;entryY=0;entryDx=0;entryDy=0;" edge="1" parent="1" source="P7xCqrhaF6OvI3bRq2u6-6" target="P7xCqrhaF6OvI3bRq2u6-10">
          <mxGeometry relative="1" as="geometry" />
        </mxCell>
        <mxCell id="P7xCqrhaF6OvI3bRq2u6-6" value="Weekly" style="rhombus;whiteSpace=wrap;html=1;" vertex="1" parent="1">
          <mxGeometry x="280" y="150" width="80" height="80" as="geometry" />
        </mxCell>
        <mxCell id="P7xCqrhaF6OvI3bRq2u6-12" style="edgeStyle=none;rounded=0;orthogonalLoop=1;jettySize=auto;html=1;entryX=1;entryY=0;entryDx=0;entryDy=0;" edge="1" parent="1" source="P7xCqrhaF6OvI3bRq2u6-7" target="P7xCqrhaF6OvI3bRq2u6-10">
          <mxGeometry relative="1" as="geometry" />
        </mxCell>
        <mxCell id="P7xCqrhaF6OvI3bRq2u6-7" value="Monthly" style="rhombus;whiteSpace=wrap;html=1;" vertex="1" parent="1">
          <mxGeometry x="400" y="150" width="80" height="80" as="geometry" />
        </mxCell>
        <mxCell id="P7xCqrhaF6OvI3bRq2u6-13" style="edgeStyle=orthogonalEdgeStyle;rounded=0;orthogonalLoop=1;jettySize=auto;html=1;entryX=1;entryY=0.5;entryDx=0;entryDy=0;" edge="1" parent="1" source="P7xCqrhaF6OvI3bRq2u6-10" target="P7xCqrhaF6OvI3bRq2u6-4">
          <mxGeometry relative="1" as="geometry">
            <Array as="points">
              <mxPoint x="500" y="300" />
              <mxPoint x="500" y="70" />
            </Array>
          </mxGeometry>
        </mxCell>
        <mxCell id="P7xCqrhaF6OvI3bRq2u6-10" value="Job Profile Scheduling Updates" style="rounded=0;whiteSpace=wrap;html=1;" vertex="1" parent="1">
          <mxGeometry x="320" y="270" width="120" height="60" as="geometry" />
        </mxCell>
      </root>
    </mxGraphModel>
  </diagram>
</mxfile>
